<svg id="e0CNYMgpSAX1" xmlns="http://www.w3.org/2000/svg" xmlns:xlink="http://www.w3.org/1999/xlink" viewBox="0 0 1099 825" shape-rendering="geometricPrecision" text-rendering="geometricPrecision"><style><![CDATA[#e0CNYMgpSAX9 {animation: e0CNYMgpSAX9_c_o 3000ms linear 1 normal forwards}@keyframes e0CNYMgpSAX9_c_o { 0% {opacity: 0} 46.666667% {opacity: 0} 53.333333% {opacity: 1} 66.666667% {opacity: 1} 73.333333% {opacity: 0} 100% {opacity: 0}} #e0CNYMgpSAX11_to {animation: e0CNYMgpSAX11_to__to 3000ms linear 1 normal forwards}@keyframes e0CNYMgpSAX11_to__to { 0% {transform: translate(306.731721px,536.964949px)} 16.666667% {transform: translate(358.166119px,453.365418px)} 33.333333% {transform: translate(497.681881px,511.418000px)} 43.333333% {transform: translate(578.184901px,497.354319px)} 66.666667% {transform: translate(690.764293px,395.011502px)} 83.333333% {transform: translate(777.457409px,272.392700px)} 93.333333% {transform: translate(835.828316px,109.621952px)} 100% {transform: translate(885.996256px,77.775501px)}} #e0CNYMgpSAX11_tr {animation: e0CNYMgpSAX11_tr__tr 3000ms linear 1 normal forwards}@keyframes e0CNYMgpSAX11_tr__tr { 0% {transform: rotate(-60.875291deg)} 16.666667% {transform: rotate(-11.083194deg)} 33.333333% {transform: rotate(23.868589deg)} 43.333333% {transform: rotate(-8.143165deg)} 56.666667% {transform: rotate(-21.519024deg)} 76.666667% {transform: rotate(-39.009181deg)} 93.333333% {transform: rotate(-27.688862deg)} 100% {transform: rotate(-2.022433deg)}} #e0CNYMgpSAX17_ts {animation: e0CNYMgpSAX17_ts__ts 3000ms linear 1 normal forwards}@keyframes e0CNYMgpSAX17_ts__ts { 0% {transform: translate(560.877000px,472.025000px) scale(1,-0.950000)} 16.666667% {transform: translate(560.877000px,472.025000px) scale(1,1)} 83.333333% {transform: translate(560.877000px,472.025000px) scale(1,1)} 100% {transform: translate(560.877000px,472.025000px) scale(1,-0.912034)}} #e0CNYMgpSAX20_ts {animation: e0CNYMgpSAX20_ts__ts 3000ms linear 1 normal forwards}@keyframes e0CNYMgpSAX20_ts__ts { 0% {transform: translate(562.500000px,540.262637px) scale(1,0.080591)} 16.666667% {transform: translate(562.500000px,540.262637px) scale(1,0.080591)} 50% {transform: translate(562.500000px,540.262637px) scale(1,1)} 60% {transform: translate(562.500000px,540.262637px) scale(1,1)} 83.333333% {transform: translate(562.500000px,540.262637px) scale(1,0.105961)} 100% {transform: translate(562.500000px,540.262637px) scale(1,0.105961)}}]]></style><g id="e0CNYMgpSAX2" clip-path="url(#e0CNYMgpSAX35)"><g id="e0CNYMgpSAX3"><g id="e0CNYMgpSAX4" opacity="0.372843"><path id="e0CNYMgpSAX5" d="M127.722000,657.273000L975.778000,657.273000L1037.500000,756.273000L66,756.273000L127.722000,657.273000Z" clip-rule="evenodd" fill="rgb(109,75,173)" fill-rule="evenodd" stroke="none" stroke-width="1"/></g><g id="e0CNYMgpSAX6"><path id="e0CNYMgpSAX7" d="M165.400000,653.273000L926.600000,653.273000L982,713.273000L110,713.273000L165.400000,653.273000Z" clip-rule="evenodd" fill="rgb(20,20,20)" fill-rule="evenodd" stroke="none" stroke-width="1"/></g><rect id="e0CNYMgpSAX8" width="951" height="318" rx="0" ry="0" transform="matrix(1 0 0 1 87 523.27300000000002)" fill="none" stroke="none" stroke-width="1"/><path id="e0CNYMgpSAX9" d="M488.522000,332.673000L493.454000,332.673000L493.454000,333.195000C493.166000,333.303000,492.878000,333.399000,492.590000,333.483000C492.302000,333.555000,492.014000,333.609000,491.726000,333.645000L491.726000,344.337000L495.866000,344.337000L496.928000,341.439000L497.396000,341.439000C497.432000,341.691000,497.462000,341.985000,497.486000,342.321000C497.522000,342.645000,497.546000,342.987000,497.558000,343.347000C497.582000,343.695000,497.594000,344.037000,497.594000,344.373000C497.594000,344.709000,497.588000,345.009000,497.576000,345.273000L488.522000,345.273000L488.522000,344.751000C488.810000,344.619000,489.074000,344.523000,489.314000,344.463000C489.554000,344.403000,489.782000,344.355000,489.998000,344.319000L489.998000,333.645000C489.722000,333.597000,489.458000,333.537000,489.206000,333.465000C488.954000,333.381000,488.726000,333.291000,488.522000,333.195000L488.522000,332.673000ZM507.833000,332.673000C507.821000,333.153000,507.797000,333.639000,507.761000,334.131000C507.737000,334.611000,507.695000,335.097000,507.635000,335.589000L507.167000,335.589000L506.429000,333.609000L502.505000,333.609000L502.505000,338.379000L505.439000,338.379000L506.141000,337.047000L506.591000,337.047000C506.663000,338.235000,506.663000,339.447000,506.591000,340.683000L506.141000,340.683000L505.439000,339.315000L502.505000,339.315000L502.505000,344.337000L506.645000,344.337000L507.527000,342.177000L507.977000,342.177000C508.061000,342.681000,508.121000,343.191000,508.157000,343.707000C508.193000,344.223000,508.199000,344.745000,508.175000,345.273000L499.301000,345.273000L499.301000,344.751000C499.721000,344.559000,500.213000,344.415000,500.777000,344.319000L500.777000,333.645000C500.537000,333.597000,500.291000,333.537000,500.039000,333.465000C499.787000,333.381000,499.541000,333.291000,499.301000,333.195000L499.301000,332.673000L507.833000,332.673000ZM518.255000,345.273000L513.197000,345.273000L513.197000,344.751000C513.461000,344.655000,513.725000,344.571000,513.989000,344.499000C514.265000,344.427000,514.559000,344.367000,514.871000,344.319000L514.871000,333.609000L512.117000,333.609000L511.163000,336.183000L510.713000,336.183000C510.677000,335.943000,510.647000,335.673000,510.623000,335.373000C510.599000,335.061000,510.575000,334.749000,510.551000,334.437000C510.539000,334.113000,510.527000,333.801000,510.515000,333.501000C510.503000,333.189000,510.497000,332.913000,510.497000,332.673000L520.955000,332.673000C520.955000,332.913000,520.949000,333.183000,520.937000,333.483000C520.925000,333.783000,520.907000,334.095000,520.883000,334.419000C520.871000,334.731000,520.853000,335.043000,520.829000,335.355000C520.817000,335.655000,520.793000,335.931000,520.757000,336.183000L520.289000,336.183000L519.353000,333.609000L516.599000,333.609000L516.599000,344.319000C516.911000,344.379000,517.199000,344.439000,517.463000,344.499000C517.739000,344.559000,518.003000,344.643000,518.255000,344.751000L518.255000,345.273000ZM523.226000,336.741000C523.694000,336.597000,524.078000,336.351000,524.378000,336.003000C524.690000,335.655000,524.816000,335.253000,524.756000,334.797000C524.624000,334.689000,524.438000,334.581000,524.198000,334.473000C523.958000,334.365000,523.748000,334.275000,523.568000,334.203000C523.508000,334.011000,523.502000,333.825000,523.550000,333.645000C523.610000,333.465000,523.694000,333.309000,523.802000,333.177000C523.910000,333.033000,524.030000,332.919000,524.162000,332.835000C524.306000,332.739000,524.444000,332.691000,524.576000,332.691000C524.972000,332.727000,525.332000,332.883000,525.656000,333.159000C525.980000,333.423000,526.142000,333.819000,526.142000,334.347000C526.142000,334.635000,526.082000,334.935000,525.962000,335.247000C525.842000,335.559000,525.668000,335.853000,525.440000,336.129000C525.212000,336.405000,524.936000,336.651000,524.612000,336.867000C524.288000,337.083000,523.928000,337.245000,523.532000,337.353000L523.226000,336.741000ZM531.056000,344.031000C531.200000,344.175000,531.386000,344.301000,531.614000,344.409000C531.842000,344.505000,532.184000,344.553000,532.640000,344.553000C533.024000,344.553000,533.384000,344.505000,533.720000,344.409000C534.056000,344.301000,534.344000,344.151000,534.584000,343.959000C534.836000,343.755000,535.034000,343.515000,535.178000,343.239000C535.322000,342.951000,535.394000,342.627000,535.394000,342.267000C535.394000,341.787000,535.244000,341.385000,534.944000,341.061000C534.656000,340.737000,534.290000,340.449000,533.846000,340.197000C533.414000,339.945000,532.940000,339.699000,532.424000,339.459000C531.908000,339.219000,531.428000,338.937000,530.984000,338.613000C530.552000,338.277000,530.186000,337.881000,529.886000,337.425000C529.598000,336.957000,529.454000,336.375000,529.454000,335.679000C529.454000,335.175000,529.544000,334.725000,529.724000,334.329000C529.904000,333.933000,530.156000,333.597000,530.480000,333.321000C530.816000,333.045000,531.212000,332.835000,531.668000,332.691000C532.124000,332.535000,532.634000,332.457000,533.198000,332.457000C533.930000,332.457000,534.596000,332.517000,535.196000,332.637000C535.808000,332.745000,536.288000,332.883000,536.636000,333.051000C536.636000,333.255000,536.618000,333.495000,536.582000,333.771000C536.558000,334.035000,536.522000,334.311000,536.474000,334.599000C536.438000,334.887000,536.396000,335.169000,536.348000,335.445000C536.300000,335.709000,536.252000,335.943000,536.204000,336.147000L535.736000,336.147000L535.016000,333.681000C534.800000,333.585000,534.524000,333.513000,534.188000,333.465000C533.864000,333.417000,533.516000,333.393000,533.144000,333.393000C532.532000,333.393000,532.040000,333.567000,531.668000,333.915000C531.296000,334.251000,531.110000,334.725000,531.110000,335.337000C531.110000,335.829000,531.254000,336.243000,531.542000,336.579000C531.842000,336.915000,532.214000,337.215000,532.658000,337.479000C533.102000,337.743000,533.576000,338.001000,534.080000,338.253000C534.596000,338.493000,535.076000,338.775000,535.520000,339.099000C535.964000,339.423000,536.330000,339.807000,536.618000,340.251000C536.918000,340.695000,537.068000,341.247000,537.068000,341.907000C537.068000,342.447000,536.966000,342.939000,536.762000,343.383000C536.570000,343.827000,536.288000,344.205000,535.916000,344.517000C535.544000,344.829000,535.088000,345.069000,534.548000,345.237000C534.008000,345.405000,533.396000,345.489000,532.712000,345.489000C531.956000,345.489000,531.278000,345.399000,530.678000,345.219000C530.078000,345.039000,529.652000,344.847000,529.400000,344.643000C529.412000,344.439000,529.430000,344.193000,529.454000,343.905000C529.490000,343.617000,529.526000,343.323000,529.562000,343.023000C529.610000,342.711000,529.658000,342.411000,529.706000,342.123000C529.754000,341.835000,529.802000,341.589000,529.850000,341.385000L530.318000,341.385000L531.056000,344.031000ZM544.705000,345.273000L544.705000,344.751000C545.185000,344.523000,545.677000,344.379000,546.181000,344.319000L546.181000,333.645000C545.941000,333.597000,545.695000,333.537000,545.443000,333.465000C545.191000,333.381000,544.945000,333.291000,544.705000,333.195000L544.705000,332.673000L546.613000,332.673000C546.841000,332.673000,547.057000,332.667000,547.261000,332.655000C547.477000,332.643000,547.699000,332.631000,547.927000,332.619000C548.155000,332.607000,548.401000,332.595000,548.665000,332.583000C548.929000,332.571000,549.229000,332.565000,549.565000,332.565000C550.045000,332.565000,550.531000,332.607000,551.023000,332.691000C551.527000,332.763000,551.977000,332.907000,552.373000,333.123000C552.781000,333.339000,553.111000,333.645000,553.363000,334.041000C553.615000,334.425000,553.741000,334.929000,553.741000,335.553000C553.741000,335.865000,553.693000,336.177000,553.597000,336.489000C553.501000,336.801000,553.351000,337.095000,553.147000,337.371000C552.955000,337.635000,552.709000,337.869000,552.409000,338.073000C552.109000,338.277000,551.755000,338.427000,551.347000,338.523000L551.347000,338.595000C551.707000,338.655000,552.061000,338.757000,552.409000,338.901000C552.769000,339.045000,553.087000,339.243000,553.363000,339.495000C553.639000,339.735000,553.861000,340.035000,554.029000,340.395000C554.209000,340.755000,554.299000,341.187000,554.299000,341.691000C554.299000,342.339000,554.155000,342.897000,553.867000,343.365000C553.579000,343.833000,553.201000,344.217000,552.733000,344.517000C552.277000,344.817000,551.755000,345.039000,551.167000,345.183000C550.579000,345.315000,549.985000,345.381000,549.385000,345.381000C548.965000,345.381000,548.491000,345.363000,547.963000,345.327000C547.435000,345.291000,546.925000,345.273000,546.433000,345.273000L544.705000,345.273000ZM549.511000,344.445000C549.943000,344.445000,550.345000,344.379000,550.717000,344.247000C551.101000,344.115000,551.425000,343.935000,551.689000,343.707000C551.965000,343.467000,552.181000,343.185000,552.337000,342.861000C552.493000,342.525000,552.571000,342.165000,552.571000,341.781000C552.571000,341.301000,552.475000,340.905000,552.283000,340.593000C552.103000,340.269000,551.851000,340.017000,551.527000,339.837000C551.215000,339.645000,550.849000,339.513000,550.429000,339.441000C550.021000,339.369000,549.595000,339.333000,549.151000,339.333000L547.801000,339.333000L547.801000,344.301000C547.969000,344.349000,548.167000,344.385000,548.395000,344.409000C548.635000,344.433000,549.007000,344.445000,549.511000,344.445000ZM548.701000,338.397000C548.905000,338.397000,549.145000,338.391000,549.421000,338.379000C549.709000,338.355000,549.943000,338.331000,550.123000,338.307000C550.675000,338.115000,551.125000,337.809000,551.473000,337.389000C551.833000,336.957000,552.013000,336.453000,552.013000,335.877000C552.013000,335.085000,551.773000,334.491000,551.293000,334.095000C550.825000,333.699000,550.195000,333.501000,549.403000,333.501000C549.031000,333.501000,548.713000,333.507000,548.449000,333.519000C548.185000,333.531000,547.969000,333.549000,547.801000,333.573000L547.801000,338.397000L548.701000,338.397000ZM565.211000,332.673000C565.199000,333.153000,565.175000,333.639000,565.139000,334.131000C565.115000,334.611000,565.073000,335.097000,565.013000,335.589000L564.545000,335.589000L563.807000,333.609000L559.883000,333.609000L559.883000,338.379000L562.817000,338.379000L563.519000,337.047000L563.969000,337.047000C564.041000,338.235000,564.041000,339.447000,563.969000,340.683000L563.519000,340.683000L562.817000,339.315000L559.883000,339.315000L559.883000,344.337000L564.023000,344.337000L564.905000,342.177000L565.355000,342.177000C565.439000,342.681000,565.499000,343.191000,565.535000,343.707000C565.571000,344.223000,565.577000,344.745000,565.553000,345.273000L556.679000,345.273000L556.679000,344.751000C557.099000,344.559000,557.591000,344.415000,558.155000,344.319000L558.155000,333.645000C557.915000,333.597000,557.669000,333.537000,557.417000,333.465000C557.165000,333.381000,556.919000,333.291000,556.679000,333.195000L556.679000,332.673000L565.211000,332.673000ZM576.537000,344.319000C576.813000,344.379000,577.077000,344.445000,577.329000,344.517000C577.581000,344.577000,577.827000,344.655000,578.067000,344.751000L578.067000,345.273000L573.333000,345.273000L573.333000,344.751000C573.597000,344.631000,573.849000,344.541000,574.089000,344.481000C574.329000,344.421000,574.569000,344.367000,574.809000,344.319000L574.809000,333.645000C574.497000,333.585000,574.221000,333.519000,573.981000,333.447000C573.741000,333.363000,573.525000,333.279000,573.333000,333.195000L573.333000,332.673000L574.917000,332.673000C575.397000,332.673000,575.919000,332.649000,576.483000,332.601000C577.059000,332.553000,577.617000,332.529000,578.157000,332.529000C578.745000,332.529000,579.291000,332.595000,579.795000,332.727000C580.311000,332.859000,580.755000,333.069000,581.127000,333.357000C581.499000,333.645000,581.787000,334.011000,581.991000,334.455000C582.207000,334.899000,582.315000,335.433000,582.315000,336.057000C582.315000,336.933000,582.081000,337.659000,581.613000,338.235000C581.157000,338.811000,580.533000,339.225000,579.741000,339.477000C580.257000,340.293000,580.797000,341.103000,581.361000,341.907000C581.925000,342.711000,582.513000,343.509000,583.125000,344.301000L584.097000,344.823000L584.097000,345.273000L581.919000,345.273000L581.235000,344.769000C580.899000,344.349000,580.593000,343.941000,580.317000,343.545000C580.041000,343.137000,579.783000,342.729000,579.543000,342.321000C579.303000,341.901000,579.075000,341.481000,578.859000,341.061000C578.655000,340.629000,578.445000,340.173000,578.229000,339.693000L576.537000,339.693000L576.537000,344.319000ZM577.761000,333.465000C577.473000,333.465000,577.233000,333.471000,577.041000,333.483000C576.861000,333.495000,576.693000,333.519000,576.537000,333.555000L576.537000,338.937000L577.833000,338.937000C578.661000,338.937000,579.315000,338.673000,579.795000,338.145000C580.287000,337.617000,580.533000,336.921000,580.533000,336.057000C580.533000,335.169000,580.275000,334.515000,579.759000,334.095000C579.243000,333.675000,578.577000,333.465000,577.761000,333.465000ZM590.644000,345.273000L586.036000,345.273000L586.036000,344.751000C586.504000,344.535000,586.984000,344.391000,587.476000,344.319000L587.476000,333.645000C587.236000,333.597000,586.996000,333.537000,586.756000,333.465000C586.516000,333.381000,586.276000,333.291000,586.036000,333.195000L586.036000,332.673000L590.644000,332.673000L590.644000,333.195000C590.428000,333.291000,590.194000,333.381000,589.942000,333.465000C589.690000,333.537000,589.444000,333.597000,589.204000,333.645000L589.204000,344.319000C589.456000,344.367000,589.708000,344.427000,589.960000,344.499000C590.212000,344.571000,590.440000,344.655000,590.644000,344.751000L590.644000,345.273000ZM602.246000,341.997000L602.714000,341.997000C602.774000,342.333000,602.828000,342.759000,602.876000,343.275000C602.924000,343.779000,602.936000,344.271000,602.912000,344.751000C602.732000,344.895000,602.516000,345.015000,602.264000,345.111000C602.012000,345.195000,601.742000,345.267000,601.454000,345.327000C601.178000,345.387000,600.890000,345.429000,600.590000,345.453000C600.302000,345.477000,600.026000,345.489000,599.762000,345.489000C598.754000,345.489000,597.854000,345.363000,597.062000,345.111000C596.270000,344.847000,595.598000,344.451000,595.046000,343.923000C594.506000,343.395000,594.086000,342.723000,593.786000,341.907000C593.498000,341.079000,593.354000,340.101000,593.354000,338.973000C593.354000,337.797000,593.516000,336.801000,593.840000,335.985000C594.164000,335.157000,594.602000,334.485000,595.154000,333.969000C595.706000,333.441000,596.348000,333.057000,597.080000,332.817000C597.812000,332.577000,598.580000,332.457000,599.384000,332.457000C600.176000,332.457000,600.842000,332.511000,601.382000,332.619000C601.922000,332.715000,602.396000,332.865000,602.804000,333.069000C602.804000,333.261000,602.798000,333.489000,602.786000,333.753000C602.774000,334.005000,602.756000,334.275000,602.732000,334.563000C602.708000,334.851000,602.678000,335.133000,602.642000,335.409000C602.606000,335.685000,602.570000,335.937000,602.534000,336.165000L602.066000,336.165000L601.130000,333.573000C600.998000,333.501000,600.776000,333.453000,600.464000,333.429000C600.164000,333.405000,599.864000,333.393000,599.564000,333.393000C598.964000,333.393000,598.394000,333.507000,597.854000,333.735000C597.326000,333.951000,596.858000,334.293000,596.450000,334.761000C596.054000,335.217000,595.736000,335.799000,595.496000,336.507000C595.256000,337.203000,595.136000,338.025000,595.136000,338.973000C595.136000,339.825000,595.244000,340.599000,595.460000,341.295000C595.676000,341.979000,595.988000,342.567000,596.396000,343.059000C596.804000,343.539000,597.302000,343.911000,597.890000,344.175000C598.478000,344.427000,599.144000,344.553000,599.888000,344.553000C600.284000,344.553000,600.614000,344.523000,600.878000,344.463000C601.142000,344.403000,601.316000,344.325000,601.400000,344.229000L602.246000,341.997000ZM609.960000,345.273000L605.406000,345.273000L605.406000,344.751000C605.886000,344.559000,606.378000,344.415000,606.882000,344.319000L606.882000,333.645000C606.318000,333.561000,605.826000,333.411000,605.406000,333.195000L605.406000,332.673000L609.960000,332.673000L609.960000,333.195000C609.756000,333.303000,609.540000,333.393000,609.312000,333.465000C609.084000,333.537000,608.850000,333.597000,608.610000,333.645000L608.610000,338.343000L614.262000,338.343000L614.262000,333.645000C614.010000,333.585000,613.770000,333.519000,613.542000,333.447000C613.326000,333.375000,613.116000,333.291000,612.912000,333.195000L612.912000,332.673000L617.466000,332.673000L617.466000,333.195000C617.250000,333.315000,617.010000,333.411000,616.746000,333.483000C616.494000,333.543000,616.242000,333.597000,615.990000,333.645000L615.990000,344.319000C616.266000,344.367000,616.530000,344.427000,616.782000,344.499000C617.034000,344.571000,617.262000,344.655000,617.466000,344.751000L617.466000,345.273000L612.912000,345.273000L612.912000,344.751000C613.344000,344.559000,613.794000,344.415000,614.262000,344.319000L614.262000,339.279000L608.610000,339.279000L608.610000,344.319000C608.850000,344.367000,609.084000,344.427000,609.312000,344.499000C609.540000,344.571000,609.756000,344.655000,609.960000,344.751000L609.960000,345.273000ZM627.289000,341.349000L626.713000,338.181000L626.713000,332.853000C626.977000,332.721000,627.247000,332.655000,627.523000,332.655000C627.799000,332.655000,628.069000,332.721000,628.333000,332.853000L628.333000,338.181000L627.757000,341.349000L627.289000,341.349000ZM626.299000,344.247000C626.299000,343.887000,626.413000,343.599000,626.641000,343.383000C626.869000,343.167000,627.163000,343.059000,627.523000,343.059000C627.895000,343.059000,628.195000,343.167000,628.423000,343.383000C628.651000,343.599000,628.765000,343.887000,628.765000,344.247000C628.765000,344.595000,628.651000,344.877000,628.423000,345.093000C628.195000,345.309000,627.895000,345.417000,627.523000,345.417000C627.163000,345.417000,626.869000,345.309000,626.641000,345.093000C626.413000,344.877000,626.299000,344.595000,626.299000,344.247000Z" opacity="0" fill="rgb(23,36,67)" stroke="none" stroke-width="1"/><path id="e0CNYMgpSAX10" d="M293.348000,554.549000C293.348000,554.549000,308.873000,413.304000,430.648000,466.786000C552.422000,520.267000,578.178000,508.833000,578.178000,508.833000C578.178000,508.833000,800.739000,353.163000,790.817000,208.273000C780.895000,63.382800,906.722000,63.382800,906.722000,63.382800" fill="none" stroke="rgb(124,130,167)" stroke-width="2" stroke-linecap="round" stroke-dasharray="6,7"/><g id="e0CNYMgpSAX11_to" transform="translate(306.731721,536.964949)"><g id="e0CNYMgpSAX11_tr" transform="rotate(-60.875291)"><g id="e0CNYMgpSAX11" transform="translate(-920.660522,-52.296848)"><path id="e0CNYMgpSAX12" d="M978.533000,35.468800L905.984000,94.042800L890.974000,65.360400L866.736000,77.956700L882.089000,43.132800L862.788000,10.550900L978.533000,35.468800" clip-rule="evenodd" fill="rgb(255,170,40)" fill-rule="evenodd" stroke="none" stroke-width="1"/><path id="e0CNYMgpSAX13" d="M887.651000,58.994000L905.985000,94.042200L890.974000,65.359800L866.737000,77.956000L882.089000,43.132200L941.994000,40.226600L887.651000,58.994000" clip-rule="evenodd" fill="rgb(235,140,65)" fill-rule="evenodd" stroke="none" stroke-width="1"/><path id="e0CNYMgpSAX14" d="M878.327000,51.665900L941.994000,40.226600L882.089000,43.132200L878.327000,51.665900" clip-rule="evenodd" fill="rgb(228,110,59)" fill-rule="evenodd" stroke="none" stroke-width="1"/></g></g></g><path id="e0CNYMgpSAX15" d="M586.324000,527.715000L614.324000,494.719000L652.324000,448.719000L689,404.500000L744,446.500000L787.824000,383.215000L815.353000,347.440000" fill="none" stroke="rgb(241,103,53)" stroke-width="14" stroke-linecap="round" stroke-linejoin="round"/><path id="e0CNYMgpSAX16" d="M826.268000,396.345000L821.562000,335.522000L764.582000,350.049000" fill="none" stroke="rgb(241,103,53)" stroke-width="14" stroke-linecap="round" stroke-linejoin="round"/><g id="e0CNYMgpSAX17_ts" transform="translate(560.877000,472.025000) scale(1,-0.950000)"><path id="e0CNYMgpSAX17" d="M648.754000,472.025000L560.876000,471.881000L473,472.025000L473.014000,471.881000C473.086000,471.553000,477.937000,467.503000,485.332000,461.493000L485.532000,461.321000C509.799000,441.620000,560.876000,401.273000,560.876000,401.273000C560.876000,401.273000,611.955000,441.620000,636.220000,461.321000C643.732000,467.417000,648.670000,471.539000,648.740000,471.881000L648.754000,472.025000Z" transform="translate(-560.877000,-472.025000)" clip-rule="evenodd" fill="rgb(34,43,154)" fill-rule="evenodd" stroke="rgb(255,255,255)" stroke-width="1"/></g><path id="e0CNYMgpSAX18" d="M648,471.693000L560.499000,523.273000L473,471.693000L473.014000,471.550000C473.085000,471.223000,545,471.693000,560.499000,471.548000C569,471.695000,647.917000,471.209000,647.986000,471.550000L648,471.693000Z" clip-rule="evenodd" fill="rgb(34,43,154)" fill-rule="evenodd" stroke="none" stroke-width="1"/><path id="e0CNYMgpSAX19" d="M645.331000,563.197000L588.771000,506.635000L560.423000,523.349000L532.066000,506.629000L475.502000,563.193000C477.449000,565.249000,480.182000,566.551000,483.228000,566.551000L637.592000,566.551000C640.638000,566.551000,643.377000,565.251000,645.331000,563.197000" clip-rule="evenodd" fill="rgb(113,124,255)" fill-rule="evenodd" stroke="none" stroke-width="1"/><g id="e0CNYMgpSAX20_ts" transform="translate(562.500000,540.262637) scale(1,0.080591)"><g id="e0CNYMgpSAX20" transform="translate(-562.500000,-540.262637)"><path id="e0CNYMgpSAX21" d="M595.540000,386.273000L500.726000,386.273000C492.594000,386.273000,486,392.867000,486,400.998000L486,544.357000C486,552.489000,492.594000,559.081000,500.726000,559.081000L619.533000,559.081000C627.663000,559.081000,634.257000,552.489000,634.257000,544.357000L634.257000,424.990000L595.540000,386.273000" clip-rule="evenodd" fill="rgb(242,244,248)" fill-rule="evenodd" stroke="none" stroke-width="1"/><path id="e0CNYMgpSAX22" d="M595.541000,410.266000C595.541000,418.398000,602.135000,424.990000,610.265000,424.990000L634.258000,424.990000L595.541000,386.273000L595.541000,410.266000" clip-rule="evenodd" fill="rgb(164,176,191)" fill-rule="evenodd" stroke="none" stroke-width="1"/><path id="e0CNYMgpSAX23" d="M546.386000,410.508000L513.676000,410.508000C510.777000,410.508000,508.430000,412.856000,508.430000,415.752000L508.430000,448.464000C508.430000,451.360000,510.777000,453.710000,513.676000,453.710000L546.386000,453.710000C549.282000,453.710000,551.632000,451.360000,551.632000,448.464000L551.632000,415.752000C551.632000,412.856000,549.282000,410.508000,546.386000,410.508000" clip-rule="evenodd" fill="rgb(238,81,52)" fill-rule="evenodd" stroke="none" stroke-width="1"/><path id="e0CNYMgpSAX24" d="M591.196000,465.715000L512.707000,465.715000C510.373000,465.715000,508.480000,467.607000,508.480000,469.941000C508.480000,472.274000,510.373000,474.168000,512.707000,474.168000L591.196000,474.168000C593.530000,474.168000,595.423000,472.274000,595.423000,469.941000C595.423000,467.607000,593.530000,465.715000,591.196000,465.715000" clip-rule="evenodd" fill="rgb(164,176,191)" fill-rule="evenodd" stroke="none" stroke-width="1"/><path id="e0CNYMgpSAX25" d="M591.196000,486.766000L512.707000,486.766000C510.373000,486.766000,508.480000,488.658000,508.480000,490.992000C508.480000,493.326000,510.373000,495.219000,512.707000,495.219000L591.196000,495.219000C593.530000,495.219000,595.423000,493.326000,595.423000,490.992000C595.423000,488.658000,593.530000,486.766000,591.196000,486.766000" clip-rule="evenodd" fill="rgb(164,176,191)" fill-rule="evenodd" stroke="none" stroke-width="1"/><path id="e0CNYMgpSAX26" d="M555.551000,507.191000L512.707000,507.191000C510.373000,507.191000,508.480000,509.084000,508.480000,511.418000C508.480000,513.752000,510.373000,515.645000,512.707000,515.645000L555.551000,515.645000C557.885000,515.645000,559.778000,513.752000,559.778000,511.418000C559.778000,509.084000,557.885000,507.191000,555.551000,507.191000" clip-rule="evenodd" fill="rgb(164,176,191)" fill-rule="evenodd" stroke="none" stroke-width="1"/><path id="e0CNYMgpSAX27" d="M515.467000,435.364000C515.158000,435.364000,514.887000,435.161000,514.799000,434.866000C514.676000,434.458000,514.572000,434.041000,514.490000,433.630000C514.303000,432.704000,514.209000,431.761000,514.209000,430.816000C514.209000,423.019000,520.552000,416.676000,528.349000,416.676000C530.562000,416.670000,532.745000,417.189000,534.719000,418.191000C536.624000,419.158000,538.288000,420.541000,539.587000,422.237000C539.636000,422.300000,539.684000,422.364000,539.733000,422.431000C539.951000,422.742000,539.880000,423.170000,539.574000,423.394000C539.268000,423.619000,538.838000,423.557000,538.607000,423.256000C538.565000,423.198000,538.523000,423.141000,538.480000,423.085000C537.308000,421.555000,535.807000,420.307000,534.089000,419.435000C532.310000,418.533000,530.343000,418.066000,528.348000,418.072000C521.321000,418.072000,515.605000,423.788000,515.605000,430.816000C515.605000,431.668000,515.690000,432.518000,515.859000,433.354000C515.934000,433.726000,516.027000,434.099000,516.137000,434.466000C516.200000,434.678000,516.160000,434.906000,516.028000,435.083000C515.896000,435.260000,515.688000,435.364000,515.468000,435.364000L515.467000,435.364000Z" fill="rgb(255,255,255)" stroke="none" stroke-width="1"/><path id="e0CNYMgpSAX28" d="M548.175000,426.019000L546.910000,426.141000L546.411000,420.925000L539.521000,429.922000L534.377000,426.317000L525.101000,437.594000L521.316000,434.881000L518.211000,438.709000C518.356000,438.969000,518.508000,439.223000,518.668000,439.469000C519.122000,440.169000,519.644000,440.824000,520.225000,441.423000L520.286000,438.886000L524.474000,438.886000L524.474000,444.310000C524.886000,444.482000,525.307000,444.631000,525.735000,444.757000L525.735000,437.603000L529.920000,437.603000L529.920000,445.268000C530.347000,445.250000,530.767000,445.210000,531.182000,445.151000L531.187000,435.349000L535.369000,435.349000L535.369000,443.772000C535.805000,443.538000,536.226000,443.278000,536.631000,442.995000L536.631000,432.846000L540.819000,432.846000L540.819000,438.111000C542.174000,435.325000,542.469000,432.140000,541.649000,429.152000C541.547000,428.780000,541.766000,428.396000,542.137000,428.294000C542.509000,428.192000,542.893000,428.410000,542.995000,428.782000C543.331000,430.005000,543.501000,431.268000,543.500000,432.537000C543.500000,440.333000,537.157000,446.676000,529.361000,446.676000C524.038000,446.675000,519.167000,443.688000,516.752000,438.944000L516.547000,438.540000L521.060000,432.981000L524.855000,435.698000L534.123000,424.431000L539.227000,428.010000L545.302000,420.079000L540.139000,420.957000L539.926000,419.702000L547.447000,418.426000L548.175000,426.019000Z" clip-rule="evenodd" fill="rgb(255,255,255)" fill-rule="evenodd" stroke="none" stroke-width="1"/></g></g><path id="e0CNYMgpSAX29" d="M648.301000,471.535000L648.301000,555.842000C648.301000,561.736000,643.485000,566.550000,637.591000,566.550000L483.227000,566.550000C477.334000,566.550000,472.547000,561.736000,472.547000,555.842000L472.547000,471.535000L560.423000,523.348000L648.301000,471.535000" clip-rule="evenodd" fill="rgb(91,103,244)" fill-rule="evenodd" stroke="none" stroke-width="1"/><path id="e0CNYMgpSAX30" d="M663.341000,224.059000C640.394000,231.342000,625.778000,254.638000,629.095000,278.482000C630.745000,290.349000,636.365000,300.503000,644.334000,307.991000C647.334000,310.811000,648.620000,315.007000,647.866000,319.056000L645.979000,329.183000L660.906000,321.729000C663.339000,320.513000,666.103000,320.144000,668.767000,320.683000C676.766000,322.304000,685.323000,321.999000,693.810000,319.317000C716.340000,312.201000,731.004000,289.668000,728.336000,266.193000C724.759000,234.699000,693.566000,214.469000,663.341000,224.059000" clip-rule="evenodd" fill="rgb(255,170,40)" fill-rule="evenodd" stroke="none" stroke-width="1"/><path id="e0CNYMgpSAX31" d="M685.094000,296.130000L687.213000,292.870000C687.213000,292.870000,684.006000,288.293000,691.155000,277.905000C695.408000,271.722000,695.561000,266.578000,694.279000,262.673000C692.236000,256.455000,685.933000,252.363000,679.424000,253.026000C675.333000,253.443000,670.696000,255.674000,666.780000,262.075000C660.198000,272.829000,654.712000,271.763000,654.712000,271.763000L652.595000,275.023000L685.094000,296.130000" clip-rule="evenodd" fill="rgb(255,255,254)" fill-rule="evenodd" stroke="none" stroke-width="1"/><path id="e0CNYMgpSAX32" d="M660.867000,284.117000C659.356000,287.473000,660.465000,291.516000,663.646000,293.580000C666.825000,295.644000,670.969000,295.014000,673.420000,292.271000L660.867000,284.117000" clip-rule="evenodd" fill="rgb(255,255,254)" fill-rule="evenodd" stroke="none" stroke-width="1"/><path id="e0CNYMgpSAX33" d="M694.246000,253.286000L692.928000,255.318000C691.183000,253.523000,689.037000,252.129000,686.678000,251.282000L688.006000,249.235000C689.130000,247.505000,691.436000,247.015000,693.167000,248.138000C694.880000,249.253000,695.370000,251.557000,694.246000,253.286000" clip-rule="evenodd" fill="rgb(255,255,254)" fill-rule="evenodd" stroke="none" stroke-width="1"/><path id="e0CNYMgpSAX34" d="M666.925000,223.077000C685.453000,224.589000,701.588000,238.023000,705.652000,257.142000C710.613000,280.480000,695.715000,303.420000,672.377000,308.381000C660.082000,310.994000,647.926000,308.056000,638.423000,301.317000C640.205000,303.719000,642.173000,305.960000,644.333000,307.989000C647.334000,310.809000,648.620000,315.005000,647.866000,319.054000L645.979000,329.181000L660.906000,321.727000C663.339000,320.512000,666.102000,320.143000,668.767000,320.682000C676.765000,322.302000,685.323000,321.997000,693.810000,319.316000C716.340000,312.199000,731.003000,289.667000,728.336000,266.191000C724.898000,235.940000,695.988000,216.099000,666.925000,223.077000" clip-rule="evenodd" fill="rgb(238,144,0)" fill-rule="evenodd" stroke="none" stroke-width="1"/></g><clipPath id="e0CNYMgpSAX35"><rect id="e0CNYMgpSAX36" width="1099" height="825" rx="0" ry="0" fill="rgb(255,255,255)" stroke="none" stroke-width="1"/></clipPath></g></svg>