<svg width="125" height="104" viewBox="0 0 125 104" fill="none" xmlns="http://www.w3.org/2000/svg">
<path fill-rule="evenodd" clip-rule="evenodd" d="M22.0875 16.4172L27.97 19.6344C28.4128 19.8759 28.6874 20.3398 28.6875 20.8437C28.6875 21.348 28.4128 21.8117 27.97 22.0533L22.0875 25.2711L18.869 31.1543C18.628 31.5965 18.1636 31.8711 17.6602 31.8711C17.1567 31.8711 16.6922 31.5965 16.4513 31.1543L13.2328 25.2711L7.35032 22.0533C6.90739 21.8116 6.63281 21.3478 6.63281 20.8437C6.63281 20.3397 6.90753 19.8759 7.35032 19.6344L13.2328 16.4172L16.4514 10.5334C16.9333 9.65034 18.3872 9.65034 18.869 10.5334L22.0875 16.4172ZM19.8624 23.5938C19.9889 23.363 20.1787 23.1725 20.4103 23.046L24.4361 20.8439L20.41 18.6423C20.1785 18.5158 19.9887 18.3253 19.8622 18.0945L17.66 14.0683L15.4579 18.0945C15.3314 18.3253 15.1416 18.5158 14.9101 18.6423L10.8839 20.8439L14.9102 23.046C15.1417 23.1725 15.3315 23.363 15.458 23.5938L17.6603 27.62L19.8624 23.5938Z" fill="#F3A869"/>
<path fill-rule="evenodd" clip-rule="evenodd" d="M114.348 90.4032L119.149 93.0289C119.51 93.2259 119.734 93.6044 119.734 94.0159C119.734 94.4273 119.51 94.8059 119.149 95.0031L114.348 97.6293L111.721 102.431C111.524 102.792 111.145 103.016 110.734 103.016C110.323 103.016 109.944 102.792 109.748 102.431L107.121 97.6293L102.32 95.0031C101.958 94.8058 101.734 94.4273 101.734 94.0159C101.734 93.6044 101.959 93.2259 102.32 93.0289L107.121 90.4032L109.748 85.6011C110.141 84.8804 111.328 84.8804 111.721 85.6011L114.348 90.4032ZM112.532 96.2604C112.635 96.072 112.79 95.9164 112.979 95.8133L116.265 94.016L112.979 92.2192C112.79 92.1159 112.635 91.9604 112.532 91.7721L110.734 88.4861L108.937 91.7721C108.834 91.9603 108.679 92.1159 108.49 92.2192L105.204 94.016L108.49 95.8133C108.679 95.9164 108.834 96.072 108.937 96.2604L110.734 99.5464L112.532 96.2604Z" fill="#F3A869"/>
<path d="M124.056 18.3324C124.056 17.224 123.158 16.3254 122.049 16.3254H120.873L121.704 15.3881C122.488 14.6041 122.488 13.2811 121.704 12.4971C120.92 11.7131 119.539 11.6863 118.755 12.4703L117.812 13.2748V12.0988C117.812 10.9904 116.915 10.0918 115.805 10.0918C114.696 10.0918 113.798 10.9904 113.798 12.0988V13.2748L113.079 12.4437C112.295 11.6598 111.08 11.6598 110.296 12.4437C109.512 13.2277 109.54 14.6039 110.324 15.3879L111.182 16.3252H110.007C108.898 16.3252 108 17.2238 108 18.3322C108 19.4406 108.898 20.3393 110.007 20.3393H111.184L110.352 21.065C109.568 21.849 109.568 23.066 110.352 23.85C110.744 24.2422 111.257 24.4115 111.771 24.4115C112.284 24.4115 112.687 24.2023 113.079 23.8103L113.798 22.9658V24.141C113.798 25.2494 114.696 26.148 115.805 26.148C116.915 26.148 117.812 25.2494 117.812 24.141V22.9658L118.755 23.7971C119.147 24.1891 119.716 24.3851 120.229 24.3851C120.743 24.3851 121.284 24.1893 121.676 23.7971C122.46 23.0131 122.474 21.849 121.69 21.065L120.872 20.3393H122.049C123.158 20.3394 124.056 19.4408 124.056 18.3324Z" fill="#F3A869"/>
<path d="M29.9999 82.2506C29.9999 81.4222 29.329 80.7506 28.4999 80.7506H27.621L28.2421 80.0501C28.828 79.4642 28.828 78.4754 28.2421 77.8894C27.6561 77.3035 26.6237 77.2835 26.0378 77.8694L25.3336 78.4707V77.5918C25.3336 76.7634 24.6627 76.0918 23.8336 76.0918C23.0045 76.0918 22.3336 76.7634 22.3336 77.5918V78.4707L21.7957 77.8496C21.2098 77.2637 20.302 77.2637 19.716 77.8496C19.1301 78.4355 19.151 79.464 19.7369 80.05L20.3785 80.7505H19.5C18.6709 80.7505 18 81.4221 18 82.2505C18 83.0789 18.6709 83.7505 19.5 83.7505H20.3796L19.7578 84.2929C19.1719 84.8788 19.1719 85.7884 19.7578 86.3743C20.0507 86.6674 20.4345 86.794 20.8183 86.794C21.202 86.794 21.5027 86.6376 21.7957 86.3447L22.3336 85.7135V86.5918C22.3336 87.4202 23.0045 88.0918 23.8336 88.0918C24.6627 88.0918 25.3336 87.4202 25.3336 86.5918V85.7135L26.0378 86.3347C26.3307 86.6277 26.7559 86.7743 27.1397 86.7743C27.5235 86.7743 27.9281 86.6279 28.2212 86.3347C28.8071 85.7488 28.8173 84.8788 28.2314 84.2929L27.6202 83.7505H28.4999C29.329 83.7506 29.9999 83.079 29.9999 82.2506Z" fill="#F3A869"/>
<path d="M10.8789 68.4666H8.64941V66.2473C8.64941 65.1389 7.75175 64.2402 6.64238 64.2402C5.53301 64.2402 4.63535 65.1389 4.63535 66.2473V68.4666H2.85078C1.74141 68.4666 0.84375 69.3652 0.84375 70.4736C0.84375 71.582 1.74141 72.4807 2.85078 72.4807H4.63535V74.2754C4.63535 75.3838 5.53301 76.2824 6.64238 76.2824C7.75175 76.2824 8.64941 75.3838 8.64941 74.2754V72.4807H10.8789C11.9883 72.4807 12.8859 71.582 12.8859 70.4736C12.8859 69.3652 11.9883 68.4666 10.8789 68.4666Z" fill="#F3A869"/>
<path d="M103.562 3.50007L104.672 2.38985C105.219 1.84298 105.219 0.957016 104.672 0.41015C104.125 -0.136717 103.239 -0.136717 102.692 0.41015L101.582 1.52037L100.472 0.41015C99.925 -0.136717 99.039 -0.136717 98.4922 0.41015C97.9453 0.957016 97.9453 1.84298 98.4922 2.38985L99.6024 3.50007L98.4922 4.61015C97.9453 5.15702 97.9453 6.04298 98.4922 6.58985C98.7656 6.86328 99.1238 7.00007 99.4821 7.00007C99.8403 7.00007 100.198 6.86328 100.472 6.58985L101.582 5.47963L102.692 6.58985C102.966 6.86328 103.324 7.00007 103.682 7.00007C104.04 7.00007 104.398 6.86328 104.672 6.58985C105.219 6.04298 105.219 5.15702 104.672 4.61015L103.562 3.50007Z" fill="#F3A869"/>
<rect x="33" y="19" width="76" height="76" rx="38" fill="#EE5134"/>
<path fill-rule="evenodd" clip-rule="evenodd" d="M62.7653 38H78.7535C80.2809 38 81.5188 39.2407 81.5188 40.7681V73.2347C81.5188 74.7607 80.2809 76 78.7535 76H62.7653C61.2352 76 60 74.7607 60 73.2347V40.7681C60 39.2407 61.2352 38 62.7653 38ZM74.7073 39.6811H66.8143C66.6135 39.6811 66.4543 39.9788 66.4543 40.3471C66.4543 40.7155 66.6135 41.0146 66.8143 41.0146H74.7073C74.9067 41.0146 75.0687 40.7155 75.0687 40.3471C75.0687 39.9788 74.9067 39.6811 74.7073 39.6811ZM70.7608 73.2679C69.7873 73.2679 68.9953 72.4758 68.9953 71.501C68.9953 70.5261 69.7873 69.7368 70.7608 69.7368C71.7315 69.7368 72.5236 70.5261 72.5236 71.501C72.5236 72.4758 71.7315 73.2679 70.7608 73.2679ZM62.073 67.218H79.4473V42.6707H62.073V67.218Z" fill="white"/>
</svg>
