<svg width="115" height="68" viewBox="0 0 115 68" fill="none" xmlns="http://www.w3.org/2000/svg">
<rect width="115" height="68" fill="url(#paint0_linear)"/>
<path d="M33.8985 39.2093C33.4331 39.209 33.023 38.9031 32.8899 38.4571C32.7054 37.8418 32.5486 37.2119 32.4241 36.5922C32.1416 35.1938 31.9995 33.7707 32 32.344C32 20.5748 41.5747 11.0001 53.3431 11.0001C56.6841 10.9903 59.9798 11.7729 62.9596 13.2839C65.8363 14.7445 68.3484 16.8324 70.3106 19.3933C70.3838 19.4886 70.4571 19.5867 70.5303 19.6863C70.8594 20.1555 70.753 20.8018 70.2907 21.1406C69.8285 21.4795 69.1802 21.3866 68.8317 20.9315C68.768 20.8451 68.7043 20.7587 68.6391 20.6737C66.8702 18.364 64.6051 16.4811 62.0111 15.1641C59.3259 13.8026 56.356 13.0975 53.3453 13.1066C42.7386 13.1066 34.1095 21.7358 34.1095 32.3432C34.1088 33.6299 34.2366 34.9135 34.4911 36.1747C34.6039 36.7358 34.7445 37.2998 34.9101 37.8535C35.005 38.1725 34.9439 38.5175 34.7452 38.7844C34.5465 39.0513 34.2335 39.2088 33.9007 39.2093H33.8985Z" fill="white"/>
<path fill-rule="evenodd" clip-rule="evenodd" d="M83.271 25.099L81.3608 25.2828L80.6085 17.4096L70.2076 30.9894L62.4435 25.5487L48.4418 42.5703L42.7243 38.4759L38.0365 44.2543C38.2562 44.6461 38.4848 45.0292 38.7265 45.4006C39.4129 46.458 40.2006 47.4461 41.0784 48.3509L41.1736 44.5216H47.4948V52.7098C48.1172 52.9679 48.7529 53.1928 49.3992 53.3837V42.5857H55.7196V54.1535C56.3634 54.1264 56.9984 54.0663 57.6239 53.9769L57.6313 39.1849H63.9451V51.896C64.6019 51.5423 65.2377 51.151 65.8495 50.7241V35.4025H72.1706V43.3512C74.2161 39.1447 74.6618 34.3378 73.4246 29.827C73.3143 29.2836 73.6439 28.7478 74.1786 28.601C74.7132 28.4543 75.2702 28.7468 75.4528 29.2703C75.9597 31.1169 76.2159 33.0232 76.2145 34.9381C76.2145 46.7066 66.6405 56.282 54.8721 56.282C46.8378 56.279 39.4843 51.7693 35.8391 44.6095L35.5293 43.9994L42.3412 35.6069L48.0697 39.7086L62.0597 22.7009L69.7652 28.1028L78.9349 16.13L71.1415 17.4558L70.8207 15.5638L82.1738 13.6367L83.271 25.099Z" fill="white"/>
<defs>
<linearGradient id="paint0_linear" x1="0" y1="68.0003" x2="115" y2="68.0003" gradientUnits="userSpaceOnUse">
<stop stop-color="#F89938"/>
<stop offset="0.13" stop-color="#F58137"/>
<stop offset="0.3" stop-color="#F26C35"/>
<stop offset="0.48" stop-color="#F05D35"/>
<stop offset="0.69" stop-color="#EE5434"/>
<stop offset="1" stop-color="#EE5134"/>
</linearGradient>
</defs>
</svg>
