<svg width="179" height="110" viewBox="0 0 179 110" fill="none" xmlns="http://www.w3.org/2000/svg">
<rect width="178.814" height="110" fill="url(#paint0_linear)"/>
<path d="M56.768 56.9685C56.1279 56.968 55.5641 56.5475 55.3811 55.9342C55.1273 55.0882 54.9118 54.222 54.7406 53.37C54.3521 51.4472 54.1568 49.4903 54.1575 47.5286C54.1575 31.346 67.3227 18.1808 83.5043 18.1808C88.0981 18.1673 92.6297 19.2435 96.7269 21.321C100.682 23.3294 104.137 26.2002 106.835 29.7215C106.935 29.8524 107.036 29.9874 107.137 30.1244C107.589 30.7695 107.443 31.6581 106.807 32.124C106.172 32.59 105.28 32.4622 104.801 31.8365C104.714 31.7177 104.626 31.5988 104.536 31.482C102.104 28.3062 98.9895 25.7172 95.4227 23.9063C91.7305 22.0343 87.647 21.0647 83.5073 21.0773C68.923 21.0773 57.058 32.9423 57.058 47.5276C57.057 49.2968 57.2328 51.0617 57.5827 52.7959C57.7378 53.5674 57.9312 54.3429 58.1588 55.1043C58.2894 55.5428 58.2054 56.0172 57.9322 56.3842C57.6589 56.7513 57.2285 56.9678 56.771 56.9685H56.768Z" fill="white"/>
<path fill-rule="evenodd" clip-rule="evenodd" d="M124.657 37.5712L122.03 37.824L120.996 26.9983L106.695 45.6705L96.019 38.1895L76.7667 61.5943L68.905 55.9644L62.4594 63.9097C62.7615 64.4485 63.0757 64.9752 63.4081 65.4858C64.3519 66.9398 65.435 68.2984 66.642 69.5426L66.7729 64.2773H75.4645V75.536C76.3203 75.8909 77.1944 76.2002 78.083 76.4626V61.6154H86.7736V77.5211C87.6588 77.4838 88.532 77.4012 89.3921 77.2784L89.4022 56.9393H98.0837V74.4171C98.9867 73.9307 99.861 73.3927 100.702 72.8057V51.7385H109.394V62.6679C112.206 56.884 112.819 50.2746 111.118 44.0722C110.966 43.3251 111.42 42.5883 112.155 42.3865C112.89 42.1847 113.656 42.587 113.907 43.3068C114.604 45.8458 114.956 48.467 114.954 51.1C114.954 67.2816 101.79 80.4478 85.6083 80.4478C74.5612 80.4437 64.4501 74.2428 59.438 64.3981L59.012 63.5592L68.3783 52.0195L76.2551 57.6594L95.4913 34.2738L106.086 41.7014L118.695 25.2388L107.979 27.0617L107.538 24.4603L123.148 21.8105L124.657 37.5712Z" fill="white"/>
<path d="M19.625 91.2927C19.5475 91.2313 19.5173 91.1839 19.5868 91.0601L19.8657 90.5797C19.8913 90.5348 19.9348 90.5032 19.9854 90.4927C20.0359 90.4823 20.0885 90.4942 20.1296 90.5253C20.4469 90.766 20.7963 91.0057 21.2999 91.0057C21.7028 91.0057 22.0049 90.7428 22.0049 90.4084C22.0049 90.0136 21.6715 89.7417 21.0199 89.4789C20.2908 89.1838 19.5626 88.7185 19.5626 87.803C19.5626 87.1131 20.0742 86.3145 21.307 86.3145C21.8649 86.3254 22.406 86.5068 22.8579 86.8341C22.9378 86.8942 22.958 87.0057 22.9043 87.0899L22.6102 87.5321C22.5477 87.6247 22.4319 87.6872 22.3383 87.6247C22.0049 87.4152 21.6866 87.1987 21.2606 87.1987C20.8185 87.1987 20.5778 87.4465 20.5778 87.7416C20.5778 88.1061 20.8648 88.3539 21.4933 88.6097C22.2456 88.9118 23.1137 89.362 23.1137 90.3621C23.1137 91.1608 22.4239 91.898 21.3301 91.898C20.3542 91.898 19.8506 91.4871 19.625 91.2927Z" fill="white"/>
<path d="M25.0927 86.4307C25.0996 86.3605 25.1613 86.3086 25.2317 86.3139H25.3566C25.4116 86.3119 25.4628 86.3422 25.4875 86.3914L27.1926 90.0513H27.2157L28.9218 86.3914C28.9453 86.3405 28.9979 86.3096 29.0538 86.3139H29.1776C29.2482 86.3086 29.3102 86.3603 29.3176 86.4307L30.2331 91.6416C30.248 91.6849 30.2399 91.7328 30.2116 91.7688C30.1833 91.8048 30.1387 91.8241 30.0931 91.8199H29.3881C29.3199 91.8145 29.2618 91.7683 29.2411 91.703L28.7838 88.7642H28.7607L27.4031 91.8118C27.383 91.8665 27.3293 91.9014 27.2711 91.8974H27.1322C27.0747 91.8989 27.0223 91.8649 27.0002 91.8118L25.6275 88.7642H25.6043L25.1541 91.703C25.1396 91.769 25.0826 91.8169 25.0152 91.8199H24.3172C24.2714 91.8229 24.227 91.8038 24.1977 91.7685C24.1684 91.7332 24.1578 91.686 24.1692 91.6416L25.0927 86.4307Z" fill="white"/>
<path d="M30.777 86.5935C30.7532 86.5493 30.7555 86.4955 30.783 86.4535C30.8105 86.4115 30.8589 86.3879 30.9089 86.3921H31.6995C31.7567 86.3914 31.8087 86.4252 31.8315 86.4777L33.3281 89.8123H33.3673L34.8639 86.4777C34.8863 86.4253 34.9379 86.3916 34.9949 86.3921H35.7865C35.8365 86.3879 35.8848 86.4115 35.9124 86.4535C35.9399 86.4955 35.9422 86.5493 35.9184 86.5935L33.5144 91.8125C33.4921 91.8653 33.4398 91.8993 33.3824 91.8981H33.3049C33.2475 91.8993 33.1952 91.8653 33.173 91.8125L30.777 86.5935Z" fill="white"/>
<path d="M36.3212 86.5935C36.2974 86.5493 36.2997 86.4955 36.3272 86.4535C36.3547 86.4115 36.403 86.3879 36.4531 86.3921H37.2447C37.3016 86.3916 37.3533 86.4253 37.3756 86.4777L38.8753 89.8123H38.9145L40.4111 86.4777C40.4339 86.4252 40.4859 86.3914 40.5431 86.3921H41.3337C41.3837 86.3879 41.4321 86.4115 41.4596 86.4535C41.4871 86.4955 41.4894 86.5493 41.4656 86.5935L39.0616 91.8125C39.0395 91.8655 38.9871 91.8995 38.9296 91.8981H38.8521C38.7948 91.899 38.7427 91.8651 38.7202 91.8125L36.3212 86.5935Z" fill="white"/>
<path d="M44.766 86.5387C44.766 86.4988 44.7821 86.4607 44.8108 86.4329C44.8395 86.4052 44.8782 86.3903 44.9181 86.3917H48.0734C48.1126 86.3914 48.1502 86.4068 48.178 86.4344C48.2058 86.462 48.2215 86.4996 48.2215 86.5387V87.1752C48.2215 87.2144 48.2058 87.252 48.178 87.2796C48.1502 87.3072 48.1126 87.3225 48.0734 87.3223H45.7741V88.5943H47.6877C47.7678 88.5969 47.8321 88.6612 47.8347 88.7413V89.3849C47.835 89.424 47.8196 89.4615 47.792 89.4892C47.7643 89.5168 47.7268 89.5322 47.6877 89.5319H45.7741V90.8895H48.0694C48.1086 90.8893 48.1462 90.9046 48.174 90.9323C48.2018 90.9599 48.2174 90.9974 48.2174 91.0366V91.6721C48.2174 91.7538 48.1512 91.8201 48.0694 91.8201H44.9181C44.8363 91.8201 44.77 91.7538 44.77 91.6721L44.766 86.5387Z" fill="white"/>
<path fill-rule="evenodd" clip-rule="evenodd" d="M49.7603 86.3918C49.6818 86.395 49.6202 86.4602 49.6214 86.5388V91.6722C49.6202 91.7509 49.6817 91.8164 49.7603 91.8202H51.5984C52.6075 91.8817 53.5675 91.3783 54.0906 90.5131C54.6138 89.648 54.6138 88.564 54.0906 87.6989C53.5675 86.8337 52.6075 86.3303 51.5984 86.3918H49.7603ZM53.2501 89.0939C53.2501 90.1564 52.5128 90.8695 51.5057 90.8695L50.6214 90.8735V87.3264H51.5057C52.5128 87.3264 53.2501 88.0314 53.2501 89.0939Z" fill="white"/>
<path d="M55.6541 86.5386C55.6567 86.4585 55.7211 86.3942 55.8012 86.3916H56.5384C56.6196 86.3916 56.6854 86.4574 56.6854 86.5386V89.7725C56.6854 90.4322 57.1356 90.8895 57.8104 90.8895C58.4852 90.8895 58.9424 90.4322 58.9424 89.7816V86.5386C58.9421 86.4996 58.9575 86.462 58.9852 86.4344C59.0128 86.4067 59.0504 86.3913 59.0894 86.3916H59.8236C59.9039 86.3942 59.9686 86.4584 59.9717 86.5386V89.8269C59.9717 91.0053 59.033 91.8976 57.8084 91.8976C56.5837 91.8976 55.6521 91.0053 55.6521 89.8269L55.6541 86.5386Z" fill="white"/>
<path d="M62.5017 87.3183H61.3153C61.2762 87.3186 61.2386 87.3032 61.211 87.2755C61.1834 87.2479 61.1679 87.2103 61.1682 87.1712V86.5347C61.1679 86.4957 61.1834 86.4581 61.211 86.4305C61.2386 86.4028 61.2762 86.3874 61.3153 86.3877H64.7043C64.7433 86.3877 64.7807 86.4032 64.8082 86.4308C64.8358 86.4583 64.8513 86.4957 64.8513 86.5347V87.1712C64.8513 87.2102 64.8358 87.2476 64.8082 87.2752C64.7807 87.3028 64.7433 87.3183 64.7043 87.3183H63.5179V91.6681C63.5148 91.7485 63.4503 91.813 63.3698 91.8161H62.6487C62.5684 91.813 62.5042 91.7484 62.5017 91.6681V87.3183Z" fill="white"/>
<path d="M66.1001 86.5386C66.0998 86.4996 66.1152 86.462 66.1429 86.4344C66.1705 86.4067 66.2081 86.3913 66.2471 86.3916H69.4035C69.4426 86.3913 69.4801 86.4067 69.5078 86.4344C69.5354 86.462 69.5508 86.4996 69.5505 86.5386V87.1752C69.5508 87.2142 69.5354 87.2518 69.5078 87.2794C69.4801 87.3071 69.4426 87.3225 69.4035 87.3222H67.1082V88.5942H69.0218C69.1019 88.5968 69.1662 88.6611 69.1688 88.7412V89.3848C69.1691 89.4239 69.1537 89.4614 69.1261 89.4891C69.0984 89.5167 69.0609 89.5321 69.0218 89.5318H67.1082V90.8895H69.4035C69.4426 90.8892 69.4801 90.9046 69.5078 90.9322C69.5354 90.9599 69.5508 90.9974 69.5505 91.0365V91.672C69.5508 91.7112 69.5354 91.7488 69.5078 91.7766C69.4802 91.8044 69.4427 91.82 69.4035 91.82H66.2471C66.208 91.82 66.1704 91.8044 66.1428 91.7766C66.1152 91.7488 66.0998 91.7112 66.1001 91.672V86.5386Z" fill="white"/>
<path d="M73.3504 86.3115C74.0493 86.2926 74.7268 86.5532 75.2328 87.0356C75.2652 87.062 75.2846 87.1011 75.2859 87.1428C75.2873 87.1845 75.2705 87.2248 75.2398 87.2532L74.7675 87.7416C74.7435 87.7707 74.7079 87.7875 74.6703 87.7875C74.6326 87.7875 74.597 87.7707 74.5731 87.7416C74.2428 87.4505 73.8189 87.2879 73.3786 87.2834C72.3866 87.2834 71.6494 88.1133 71.6494 89.0962C71.6494 90.0792 72.3937 90.8869 73.3867 90.8869C73.8205 90.8806 74.2384 90.7228 74.568 90.4408C74.6231 90.3904 74.7074 90.3904 74.7624 90.4408L75.2428 90.9373C75.2693 90.9662 75.2831 91.0045 75.2812 91.0436C75.2793 91.0827 75.2619 91.1195 75.2328 91.1457C74.7286 91.6355 74.0512 91.9059 73.3484 91.8981C72.351 91.8981 71.4294 91.366 70.9307 90.5022C70.432 89.6384 70.432 88.5742 70.9307 87.7104C71.4294 86.8466 72.351 86.3145 73.3484 86.3145L73.3504 86.3115Z" fill="white"/>
<path d="M76.5924 86.5386C76.5951 86.457 76.6618 86.3921 76.7435 86.3916H77.4646C77.5037 86.3913 77.5412 86.4067 77.5689 86.4344C77.5965 86.462 77.6119 86.4996 77.6116 86.5386V88.5942H80.1405V86.5386C80.1403 86.4996 80.1557 86.462 80.1833 86.4344C80.2109 86.4067 80.2485 86.3913 80.2876 86.3916H81.0006C81.0809 86.3942 81.1455 86.4584 81.1487 86.5386V91.675C81.1456 91.7555 81.0811 91.82 81.0006 91.8231H80.2876C80.2484 91.8231 80.2108 91.8074 80.1832 91.7796C80.1556 91.7519 80.1403 91.7142 80.1405 91.675V89.5339H77.6076V91.674C77.6079 91.7132 77.5925 91.7508 77.5649 91.7786C77.5373 91.8064 77.4997 91.8221 77.4606 91.8221H76.7435C76.6632 91.8189 76.599 91.7543 76.5964 91.674L76.5924 86.5386Z" fill="white"/>
<path fill-rule="evenodd" clip-rule="evenodd" d="M86.8671 86.4003L84.4561 91.6193C84.4313 91.6636 84.4334 91.718 84.4613 91.7604C84.4893 91.8027 84.5385 91.826 84.589 91.8207H85.2638C85.3645 91.8228 85.4552 91.7604 85.4894 91.6656L85.8691 90.8277H88.1855L88.5652 91.6656C88.5962 91.7627 88.689 91.8265 88.7907 91.8207H89.4645C89.5146 91.8249 89.5629 91.8013 89.5904 91.7593C89.618 91.7172 89.6203 91.6635 89.5965 91.6193L87.2085 86.4003C87.1882 86.3458 87.1346 86.3111 87.0766 86.3147H86.9991C86.9417 86.3135 86.8894 86.3474 86.8671 86.4003ZM87.0303 88.2615L87.8058 89.9666H86.2467L87.0071 88.2615H87.0303Z" fill="white"/>
<path fill-rule="evenodd" clip-rule="evenodd" d="M90.8071 86.3918C90.7284 86.395 90.6665 86.4601 90.6671 86.5388V91.6722C90.6665 91.7511 90.7283 91.8164 90.8071 91.8202H92.6451C93.6543 91.8817 94.6142 91.3783 95.1374 90.5131C95.6606 89.648 95.6606 88.564 95.1374 87.6989C94.6142 86.8337 93.6543 86.3303 92.6451 86.3918H90.8071ZM94.2968 89.0939C94.2968 90.1564 93.5586 90.8695 92.5515 90.8695L91.6712 90.8735V87.3304H92.5555C93.5626 87.3304 94.2968 88.0314 94.2968 89.0939Z" fill="white"/>
<path d="M95.9717 86.5935C95.9479 86.5493 95.9502 86.4955 95.9777 86.4535C96.0052 86.4115 96.0536 86.3879 96.1036 86.3921H96.8942C96.9515 86.3912 97.0037 86.425 97.0262 86.4777L98.5228 89.8123H98.562L100.059 86.4777C100.081 86.425 100.133 86.3912 100.191 86.3921H100.981C101.031 86.3879 101.08 86.4115 101.107 86.4535C101.135 86.4955 101.137 86.5493 101.113 86.5935L98.7091 91.8125C98.6868 91.8653 98.6345 91.8993 98.5771 91.8981H98.4976C98.4402 91.8993 98.3879 91.8653 98.3656 91.8125L95.9717 86.5935Z" fill="white"/>
<path d="M102.167 86.5386C102.17 86.4585 102.234 86.3942 102.315 86.3916H103.036C103.116 86.3942 103.181 86.4584 103.184 86.5386V91.675C103.181 91.7555 103.116 91.82 103.036 91.8231H102.315C102.234 91.8199 102.17 91.7553 102.167 91.675L102.167 86.5386Z" fill="white"/>
<path d="M104.665 91.2927C104.588 91.2313 104.556 91.1839 104.626 91.0601L104.905 90.5797C104.931 90.5351 104.974 90.5036 105.025 90.4932C105.075 90.4828 105.128 90.4945 105.169 90.5253C105.487 90.766 105.836 91.0057 106.34 91.0057C106.743 91.0057 107.045 90.7428 107.045 90.4084C107.045 90.0136 106.712 89.7417 106.06 89.4789C105.332 89.1838 104.603 88.7185 104.603 87.803C104.603 87.1131 105.114 86.3145 106.347 86.3145C106.905 86.3252 107.446 86.5066 107.898 86.8341C107.978 86.8942 107.998 87.0057 107.944 87.0899L107.65 87.5321C107.588 87.6247 107.472 87.6872 107.378 87.6247C107.045 87.4152 106.728 87.1987 106.301 87.1987C105.859 87.1987 105.619 87.4465 105.619 87.7416C105.619 88.1061 105.905 88.3539 106.533 88.6097C107.286 88.9118 108.154 89.362 108.154 90.3621C108.154 91.1608 107.464 91.898 106.37 91.898C105.393 91.898 104.89 91.4871 104.665 91.2927Z" fill="white"/>
<path fill-rule="evenodd" clip-rule="evenodd" d="M114.77 89.0952C114.765 87.5534 113.512 86.3071 111.97 86.3115C111.229 86.3123 110.519 86.6081 109.997 87.1334C109.474 87.6588 109.183 88.3705 109.186 89.1114C109.191 90.6532 110.444 91.8995 111.986 91.8951C113.528 91.8906 114.774 90.6371 114.77 89.0952ZM113.624 89.7896C113.346 90.4568 112.693 90.8902 111.97 90.8869V90.89C110.991 90.8834 110.199 90.0904 110.194 89.1114C110.191 88.3885 110.624 87.7351 111.292 87.457C111.959 87.1789 112.728 87.331 113.239 87.8421C113.75 88.3533 113.902 89.1224 113.624 89.7896Z" fill="white"/>
<path fill-rule="evenodd" clip-rule="evenodd" d="M116.297 86.3916C116.215 86.3916 116.15 86.4575 116.15 86.5387L116.148 91.672C116.148 91.7534 116.213 91.8195 116.295 91.8201H117.009C117.089 91.817 117.153 91.7523 117.156 91.672V89.695H118.017L119.048 91.7496C119.072 91.7951 119.121 91.8226 119.172 91.8201H119.986C120.041 91.823 120.093 91.795 120.12 91.7475C120.148 91.7 120.147 91.6409 120.118 91.5945L119.055 89.6255C119.73 89.3536 120.203 88.7725 120.203 88.0595C120.197 87.1321 119.44 86.3855 118.512 86.3916H116.297ZM119.197 88.0746C119.198 88.5025 118.858 88.8531 118.43 88.8652H117.166V87.3222H118.43C118.847 87.3243 119.187 87.6575 119.197 88.0746Z" fill="white"/>
<path d="M122.695 89.2068L120.926 86.6134C120.896 86.5684 120.893 86.5102 120.92 86.4627C120.946 86.4153 120.997 86.3867 121.051 86.3888H121.842C121.892 86.3906 121.938 86.4165 121.966 86.4583L123.206 88.2419L124.447 86.4583C124.475 86.4166 124.521 86.3908 124.571 86.3888H125.37C125.424 86.3863 125.475 86.4149 125.502 86.4626C125.528 86.5103 125.525 86.5687 125.494 86.6134L123.703 89.1957V91.6692C123.7 91.7495 123.636 91.8141 123.556 91.8173H122.842C122.803 91.8173 122.765 91.8016 122.738 91.7738C122.71 91.746 122.695 91.7084 122.695 91.6692V89.2068Z" fill="white"/>
<path fill-rule="evenodd" clip-rule="evenodd" d="M128.538 86.4343C128.511 86.4619 128.495 86.4995 128.495 86.5386V91.672C128.495 91.7113 128.511 91.7489 128.538 91.7767C128.566 91.8045 128.604 91.82 128.643 91.82H129.356C129.436 91.8169 129.501 91.7523 129.503 91.672V89.8501H130.473C131.091 89.8487 131.661 89.5177 131.969 88.982C132.276 88.4462 132.275 87.7871 131.965 87.2527C131.654 86.7184 131.083 86.3902 130.465 86.3916H128.643C128.604 86.3913 128.566 86.4067 128.538 86.4343ZM130.989 88.6645C130.844 88.8163 130.644 88.9029 130.434 88.9044L129.503 88.9054V87.3464H130.434C130.636 87.3409 130.833 87.4179 130.977 87.5597C131.122 87.7015 131.203 87.896 131.202 88.0987C131.211 88.3084 131.134 88.5126 130.989 88.6645Z" fill="white"/>
<path d="M132.799 86.5935C132.776 86.5493 132.778 86.4955 132.805 86.4535C132.833 86.4115 132.881 86.3879 132.931 86.3921H133.722C133.779 86.3914 133.831 86.4252 133.854 86.4777L135.351 89.8123H135.39L136.886 86.4777C136.909 86.4253 136.96 86.3916 137.017 86.3921H137.809C137.859 86.3879 137.907 86.4115 137.935 86.4535C137.962 86.4955 137.965 86.5493 137.941 86.5935L135.537 91.8125C135.515 91.8653 135.462 91.8993 135.405 91.8981H135.327C135.27 91.8993 135.218 91.8653 135.195 91.8125L132.799 86.5935Z" fill="white"/>
<path d="M139.872 87.3183H138.682C138.643 87.3186 138.605 87.3032 138.578 87.2755C138.55 87.2479 138.535 87.2103 138.535 87.1712V86.5347C138.535 86.4957 138.55 86.4581 138.578 86.4305C138.605 86.4028 138.643 86.3874 138.682 86.3877H142.071C142.11 86.3874 142.148 86.4028 142.175 86.4305C142.203 86.4581 142.218 86.4957 142.218 86.5347V87.1712C142.218 87.2103 142.203 87.2479 142.175 87.2755C142.148 87.3032 142.11 87.3186 142.071 87.3183H140.888V91.6681C140.885 91.7485 140.82 91.813 140.74 91.8161H140.019C139.938 91.813 139.874 91.7484 139.872 91.6681V87.3183Z" fill="white"/>
<path d="M145.719 86.5386C145.719 86.4996 145.734 86.462 145.762 86.4344C145.789 86.4067 145.827 86.3913 145.866 86.3916H146.58C146.66 86.3942 146.725 86.4585 146.727 86.5386V90.8895H148.704C148.743 90.8892 148.781 90.9046 148.808 90.9322C148.836 90.9599 148.851 90.9974 148.851 91.0365V91.672C148.851 91.7112 148.836 91.7488 148.808 91.7766C148.781 91.8044 148.743 91.82 148.704 91.82H145.866C145.827 91.82 145.789 91.8044 145.762 91.7766C145.734 91.7488 145.719 91.7112 145.719 91.672V86.5386Z" fill="white"/>
<path d="M150.597 87.3183H149.41C149.371 87.3186 149.333 87.3032 149.306 87.2755C149.278 87.2479 149.263 87.2103 149.263 87.1712V86.5347C149.263 86.4957 149.278 86.4581 149.306 86.4305C149.333 86.4028 149.371 86.3874 149.41 86.3877H152.799C152.88 86.3877 152.946 86.4535 152.946 86.5347V87.1712C152.946 87.2525 152.88 87.3183 152.799 87.3183H151.613V91.6681C151.61 91.7485 151.545 91.813 151.465 91.8161H150.744C150.663 91.813 150.599 91.7484 150.597 91.6681V87.3183Z" fill="white"/>
<path fill-rule="evenodd" clip-rule="evenodd" d="M154.332 86.3918C154.253 86.395 154.191 86.4601 154.192 86.5388V91.6722C154.191 91.7511 154.253 91.8164 154.332 91.8202H156.169C157.178 91.8817 158.138 91.3783 158.661 90.5131C159.184 89.648 159.184 88.564 158.661 87.6989C158.138 86.8337 157.178 86.3303 156.169 86.3918H154.332ZM157.821 89.0939C157.821 90.1564 157.083 90.8695 156.076 90.8695L155.199 90.8735V87.3264H156.076C157.084 87.3264 157.821 88.0314 157.821 89.0939Z" fill="white"/>
<defs>
<linearGradient id="paint0_linear" x1="0" y1="110.001" x2="178.814" y2="110.001" gradientUnits="userSpaceOnUse">
<stop stop-color="#F89938"/>
<stop offset="0.13" stop-color="#F58137"/>
<stop offset="0.3" stop-color="#F26C35"/>
<stop offset="0.48" stop-color="#F05D35"/>
<stop offset="0.69" stop-color="#EE5434"/>
<stop offset="1" stop-color="#EE5134"/>
</linearGradient>
</defs>
</svg>
