<svg width="125" height="104" viewBox="0 0 125 104" fill="none" xmlns="http://www.w3.org/2000/svg">
<path fill-rule="evenodd" clip-rule="evenodd" d="M22.0907 16.4167L27.9732 19.6339C28.416 19.8755 28.6905 20.3393 28.6907 20.8433C28.6907 21.3475 28.416 21.8112 27.9732 22.0528L22.0907 25.2706L18.8722 31.1538C18.6311 31.596 18.1667 31.8706 17.6633 31.8706C17.1599 31.8706 16.6954 31.596 16.4545 31.1538L13.236 25.2706L7.35348 22.0528C6.91055 21.8111 6.63597 21.3473 6.63597 20.8433C6.63597 20.3392 6.91069 19.8755 7.35348 19.6339L13.236 16.4167L16.4546 10.5329C16.9364 9.64985 18.3903 9.64985 18.8722 10.5329L22.0907 16.4167ZM19.8656 23.5934C19.9921 23.3625 20.1819 23.172 20.4134 23.0455L24.4393 20.8434L20.4131 18.6418C20.1816 18.5153 19.9918 18.3248 19.8653 18.094L17.6632 14.0678L15.461 18.094C15.3345 18.3248 15.1447 18.5153 14.9132 18.6418L10.8871 20.8434L14.9134 23.0455C15.1449 23.172 15.3347 23.3625 15.4612 23.5934L17.6635 27.6195L19.8656 23.5934Z" fill="#F3A869"/>
<path fill-rule="evenodd" clip-rule="evenodd" d="M114.348 90.4032L119.149 93.0289C119.51 93.2259 119.734 93.6044 119.735 94.0159C119.735 94.4273 119.51 94.8059 119.149 95.0031L114.348 97.6293L111.721 102.431C111.524 102.792 111.145 103.016 110.735 103.016C110.324 103.016 109.945 102.792 109.748 102.431L107.121 97.6293L102.32 95.0031C101.959 94.8058 101.735 94.4273 101.735 94.0159C101.735 93.6044 101.959 93.2259 102.32 93.0289L107.121 90.4032L109.748 85.6011C110.141 84.8804 111.328 84.8804 111.721 85.6011L114.348 90.4032ZM112.532 96.2604C112.635 96.072 112.79 95.9164 112.979 95.8133L116.265 94.016L112.979 92.2192C112.79 92.1159 112.635 91.9604 112.532 91.7721L110.735 88.4861L108.937 91.7721C108.834 91.9603 108.679 92.1159 108.49 92.2192L105.204 94.016L108.49 95.8133C108.679 95.9164 108.834 96.072 108.937 96.2604L110.735 99.5464L112.532 96.2604Z" fill="#F3A869"/>
<path d="M124.056 18.3319C124.056 17.2235 123.158 16.3249 122.049 16.3249H120.873L121.704 15.3876C122.488 14.6036 122.488 13.2806 121.704 12.4966C120.92 11.7126 119.539 11.6858 118.755 12.4698L117.812 13.2743V12.0983C117.812 10.9899 116.915 10.0913 115.805 10.0913C114.696 10.0913 113.798 10.9899 113.798 12.0983V13.2743L113.079 12.4433C112.295 11.6593 111.08 11.6593 110.296 12.4433C109.512 13.2272 109.54 14.6034 110.324 15.3874L111.182 16.3247H110.007C108.898 16.3247 108 17.2233 108 18.3317C108 19.4401 108.898 20.3388 110.007 20.3388H111.184L110.352 21.0645C109.568 21.8485 109.568 23.0655 110.352 23.8495C110.744 24.2417 111.257 24.411 111.771 24.411C112.284 24.411 112.687 24.2018 113.079 23.8099L113.798 22.9653V24.1405C113.798 25.2489 114.696 26.1476 115.805 26.1476C116.915 26.1476 117.812 25.2489 117.812 24.1405V22.9653L118.755 23.7966C119.147 24.1886 119.716 24.3847 120.229 24.3847C120.743 24.3847 121.284 24.1888 121.676 23.7966C122.46 23.0126 122.474 21.8485 121.69 21.0645L120.872 20.3388H122.049C123.158 20.339 124.056 19.4403 124.056 18.3319Z" fill="#F3A869"/>
<path d="M29.9999 82.2501C29.9999 81.4217 29.329 80.7501 28.4999 80.7501H27.621L28.2421 80.0496C28.828 79.4637 28.828 78.4749 28.2421 77.8889C27.6562 77.303 26.6237 77.283 26.0378 77.8689L25.3336 78.4702V77.5913C25.3336 76.7629 24.6627 76.0913 23.8336 76.0913C23.0045 76.0913 22.3336 76.7629 22.3336 77.5913V78.4702L21.7957 77.8491C21.2098 77.2632 20.302 77.2632 19.7161 77.8491C19.1301 78.435 19.151 79.4635 19.7369 80.0495L20.3785 80.75H19.5C18.6709 80.75 18 81.4216 18 82.25C18 83.0784 18.6709 83.75 19.5 83.75H20.3796L19.7578 84.2924C19.1719 84.8783 19.1719 85.7879 19.7578 86.3738C20.0508 86.6669 20.4345 86.7935 20.8183 86.7935C21.202 86.7935 21.5027 86.6371 21.7957 86.3442L22.3336 85.713V86.5913C22.3336 87.4197 23.0045 88.0913 23.8336 88.0913C24.6627 88.0913 25.3336 87.4197 25.3336 86.5913V85.713L26.0378 86.3343C26.3307 86.6272 26.756 86.7738 27.1397 86.7738C27.5235 86.7738 27.9281 86.6274 28.2212 86.3343C28.8071 85.7483 28.8174 84.8783 28.2314 84.2924L27.6202 83.75H28.4999C29.329 83.7501 29.9999 83.0785 29.9999 82.2501Z" fill="#F3A869"/>
<path d="M10.8803 68.4661H8.65081V66.2468C8.65081 65.1384 7.75316 64.2397 6.64378 64.2397C5.53441 64.2397 4.63675 65.1384 4.63675 66.2468V68.4661H2.85218C1.74281 68.4661 0.845154 69.3647 0.845154 70.4731C0.845154 71.5815 1.74281 72.4802 2.85218 72.4802H4.63675V74.2749C4.63675 75.3833 5.53441 76.2819 6.64378 76.2819C7.75316 76.2819 8.65081 75.3833 8.65081 74.2749V72.4802H10.8803C11.9897 72.4802 12.8873 71.5815 12.8873 70.4731C12.8873 69.3647 11.9897 68.4661 10.8803 68.4661Z" fill="#F3A869"/>
<path d="M103.564 3.50007L104.674 2.38985C105.221 1.84298 105.221 0.957016 104.674 0.41015C104.127 -0.136717 103.241 -0.136717 102.694 0.41015L101.584 1.52037L100.474 0.41015C99.9273 -0.136717 99.0413 -0.136717 98.4944 0.41015C97.9476 0.957016 97.9476 1.84298 98.4944 2.38985L99.6047 3.50007L98.4944 4.61015C97.9476 5.15702 97.9476 6.04298 98.4944 6.58985C98.7679 6.86328 99.126 7.00007 99.4844 7.00007C99.8425 7.00007 100.201 6.86328 100.474 6.58985L101.584 5.47963L102.694 6.58985C102.968 6.86328 103.326 7.00007 103.684 7.00007C104.043 7.00007 104.401 6.86328 104.674 6.58985C105.221 6.04298 105.221 5.15702 104.674 4.61015L103.564 3.50007Z" fill="#F3A869"/>
<rect x="33" y="19" width="76" height="76" rx="38" fill="#EE5134"/>
<path fill-rule="evenodd" clip-rule="evenodd" d="M58.6528 65.4931C58.6528 67.6218 60.3783 69.3473 62.5069 69.3473H80.493C82.6217 69.3473 84.3472 67.6218 84.3472 65.4931V47.507C84.3472 45.3784 82.6217 43.6528 80.493 43.6528H62.5069C60.3783 43.6528 58.6528 45.3784 58.6528 47.507V65.4931ZM81.7778 65.4931C81.7778 66.2027 81.2026 66.7778 80.493 66.7778H62.5069C61.7974 66.7778 61.2222 66.2027 61.2222 65.4931V47.507C61.2222 46.7975 61.7974 46.2223 62.5069 46.2223H68.9305V56.5143L72.0075 56.5144L74.0696 53.7561L76.1315 56.5144H79.2084L79.2083 46.2223H80.493C81.2026 46.2223 81.7778 46.7975 81.7778 47.507V65.4931ZM71.5 46.2223H76.6389V53.0772L74.0696 49.6402L71.5 53.0774V46.2223Z" fill="#2D2D2D"/>
<mask id="mask0" mask-type="alpha" maskUnits="userSpaceOnUse" x="58" y="43" width="27" height="27">
<path fill-rule="evenodd" clip-rule="evenodd" d="M58.6528 65.4931C58.6528 67.6218 60.3783 69.3473 62.5069 69.3473H80.493C82.6217 69.3473 84.3472 67.6218 84.3472 65.4931V47.507C84.3472 45.3784 82.6217 43.6528 80.493 43.6528H62.5069C60.3783 43.6528 58.6528 45.3784 58.6528 47.507V65.4931ZM81.7778 65.4931C81.7778 66.2027 81.2026 66.7778 80.493 66.7778H62.5069C61.7974 66.7778 61.2222 66.2027 61.2222 65.4931V47.507C61.2222 46.7975 61.7974 46.2223 62.5069 46.2223H68.9305V56.5143L72.0075 56.5144L74.0696 53.7561L76.1315 56.5144H79.2084L79.2083 46.2223H80.493C81.2026 46.2223 81.7778 46.7975 81.7778 47.507V65.4931ZM71.5 46.2223H76.6389V53.0772L74.0696 49.6402L71.5 53.0774V46.2223Z" fill="white"/>
</mask>
<g mask="url(#mask0)">
</g>
</svg>
