<svg width="2213" height="430" viewBox="0 0 2213 430" fill="none" xmlns="http://www.w3.org/2000/svg">
<mask id="mask0" mask-type="alpha" maskUnits="userSpaceOnUse" x="0" y="0" width="2213" height="430">
<path fill-rule="evenodd" clip-rule="evenodd" d="M0 0H2213V430H0V0Z" fill="white"/>
</mask>
<g mask="url(#mask0)">
<g opacity="0.3">
<path fill-rule="evenodd" clip-rule="evenodd" d="M0 107.04C0 107.04 107.375 210.598 272.535 208.265C382.589 206.715 483.15 94.0686 629.845 107.04C728.905 115.799 843.644 251.544 958.427 249.706C1073.21 247.869 1179.73 111.862 1351.78 107.04C1523.83 102.218 1681.45 234.828 1819 238.672C2055.31 245.279 2209.09 136.145 2213 150.423V451H0V107.04Z" fill="#C37FFF" style="mix-blend-mode:overlay"/>
</g>
<g opacity="0.4">
<path fill-rule="evenodd" clip-rule="evenodd" d="M0 372.964C0 372.964 78.4162 254.243 356.723 257.946C578.383 260.896 623.269 337.407 752.202 337.575C858.396 337.709 979.58 254.679 1090.15 257.946C1199.7 261.183 1299 345.77 1406.29 346.421C1510.81 347.053 1598.92 252.131 1766.04 249.099C1933.16 246.068 1982.51 313.149 2055.36 337.575C2168.68 375.555 2213 381.81 2213 381.81V433H0V372.964Z" fill="#C4CBFF" style="mix-blend-mode:overlay"/>
</g>
<g opacity="0.3">
<path fill-rule="evenodd" clip-rule="evenodd" d="M2213 234.874C2103.98 234.874 2087.9 358.745 1744.23 351.359C1651.03 349.359 1453.7 174.015 1351.78 168.313C1234.1 161.719 1112.45 302.192 992.032 301.435C868.995 300.661 758.138 176.204 643.186 168.313C517.134 159.656 386.815 333.856 283.441 318.073C65.4104 284.797 0 184.951 0 184.951V431H2213V234.874Z" fill="#717CFF" style="mix-blend-mode:overlay">
<animate  attributeName="d"
                                        from="M2213 295.247C2103.98 295.247 2087.9 381.251 1744.23 376.122C1651.03 374.734 1453.7 252.992 1351.78 249.033C1234.1 244.455 1112.45 341.986 992.032 341.46C868.995 340.922 758.138 254.512 643.186 249.033C517.134 243.022 386.815 363.97 283.441 353.012C65.4104 329.908 0 260.585 0 260.585V431.417H2213V295.247Z"
                                        to="M0 273.42C0 273.42 120.693 222.372 399 227.206C620.66 231.059 597.068 61.8051 726 62.024C832.194 62.1991 942.433 222.94 1053 227.206C1162.55 231.434 1242.71 44.1718 1350 45.0224C1454.52 45.848 1598.92 269.31 1766.04 265.351C1933.16 261.392 1967.64 71.6261 2040.5 103.523C2153.81 153.121 2213 284.971 2213 284.971V351.818H0V273.42Z"
                                        dur="7s"  values="M0 273.42C0 273.42 120.693 222.372 399 227.206C620.66 231.059 597.068 61.8051 726 62.024C832.194 62.1991 942.433 222.94 1053 227.206C1162.55 231.434 1242.71 44.1718 1350 45.0224C1454.52 45.848 1598.92 269.31 1766.04 265.351C1933.16 261.392 1967.64 71.6261 2040.5 103.523C2153.81 153.121 2213 284.971 2213 284.971V351.818H0V273.42Z; M2213 295.247C2103.98 295.247 2087.9 381.251 1744.23 376.122C1651.03 374.734 1453.7 252.992 1351.78 249.033C1234.1 244.455 1112.45 341.986 992.032 341.46C868.995 340.922 758.138 254.512 643.186 249.033C517.134 243.022 386.815 363.97 283.441 353.012C65.4104 329.908 0 260.585 0 260.585V431.417H2213V295.247Z;M0 273.42C0 273.42 120.693 222.372 399 227.206C620.66 231.059 597.068 61.8051 726 62.024C832.194 62.1991 942.433 222.94 1053 227.206C1162.55 231.434 1242.71 44.1718 1350 45.0224C1454.52 45.848 1598.92 269.31 1766.04 265.351C1933.16 261.392 1967.64 71.6261 2040.5 103.523C2153.81 153.121 2213 284.971 2213 284.971V351.818H0V273.42Z;" repeatCount="indefinite"  />
                                        </path>
</g>
<path opacity="0.322629" fill-rule="evenodd" clip-rule="evenodd" d="M2213 326.941C2199.56 343.729 2109.21 367.604 1929.56 309.132C1845.63 281.805 1771.16 151.737 1667.92 148.816C1565.13 145.904 1432.77 295.449 1319.08 291.312C1155.56 285.382 1093.46 149.5 981.132 148.816C872.961 148.15 788.158 249.117 686.791 255.693C535.174 265.528 403.15 131.72 283.441 131.006C81.403 129.791 0 309.132 0 309.132V430H2213V326.941Z" fill="#E9D3FF"/>
</g>
</svg>
