<svg width="141" height="6" viewBox="0 0 141 6" fill="none" xmlns="http://www.w3.org/2000/svg">
<path d="M0.624979 5.29271C0.54743 5.23127 0.517216 5.18394 0.586708 5.06006L0.865684 4.57966C0.891195 4.53482 0.934784 4.50315 0.985307 4.49274C1.03583 4.48232 1.08839 4.49418 1.12955 4.52527C1.4468 4.76598 1.79627 5.00568 2.29984 5.00568C2.70269 5.00568 3.00483 4.74281 3.00483 4.40845C3.00483 4.01365 2.67147 3.74172 2.01986 3.47886C1.29069 3.18377 0.562537 2.71848 0.562537 1.80299C0.562537 1.11311 1.07416 0.314453 2.30689 0.314453C2.86479 0.325427 3.40599 0.506764 3.85787 0.834133C3.93776 0.894215 3.95794 1.00566 3.9042 1.08995L3.61012 1.53208C3.54768 1.62473 3.43186 1.68717 3.33819 1.62473C3.00483 1.41525 2.68658 1.19872 2.26056 1.19872C1.81843 1.19872 1.57773 1.44647 1.57773 1.74156C1.57773 2.10614 1.86476 2.3539 2.49321 2.60971C3.24554 2.91185 4.11369 3.36204 4.11369 4.36212C4.11369 5.16077 3.4238 5.89799 2.33005 5.89799C1.35414 5.89799 0.850577 5.48708 0.624979 5.29271Z" fill="white"/>
<path d="M6.0927 0.431188C6.09962 0.360964 6.16132 0.309098 6.23168 0.31436H6.35657C6.41161 0.31242 6.46275 0.342707 6.4875 0.391909L8.19257 4.05183H8.21574L9.92182 0.391909C9.94525 0.341009 9.99788 0.31007 10.0538 0.31436H10.1776C10.2482 0.309071 10.3102 0.360812 10.3176 0.431188L11.2331 5.64209C11.248 5.6854 11.2399 5.7333 11.2116 5.76932C11.1833 5.80533 11.1387 5.82455 11.0931 5.82035H10.3881C10.3199 5.81495 10.2618 5.76875 10.2411 5.70353L9.78384 2.76471H9.76068L8.40306 5.8123C8.38303 5.86701 8.32926 5.9019 8.27113 5.8979H8.13214C8.0747 5.89939 8.02226 5.86536 8.00021 5.8123L6.62749 2.76471H6.60432L6.15414 5.70353C6.13961 5.76945 6.08259 5.81737 6.01515 5.82035H5.31721C5.27143 5.82341 5.22697 5.80432 5.19766 5.76903C5.16835 5.73374 5.15775 5.68653 5.16916 5.64209L6.0927 0.431188Z" fill="white"/>
<path d="M11.777 0.593011C11.7531 0.548778 11.7555 0.495059 11.783 0.453035C11.8105 0.411012 11.8588 0.387429 11.9089 0.391584H12.6995C12.7567 0.390938 12.8087 0.424683 12.8314 0.47719L14.328 3.81181H14.3673L15.8639 0.47719C15.8863 0.424842 15.9379 0.391074 15.9948 0.391584H16.7864C16.8365 0.387429 16.8848 0.411012 16.9123 0.453035C16.9399 0.495059 16.9422 0.548778 16.9184 0.593011L14.5143 5.81197C14.4921 5.86485 14.4398 5.89878 14.3824 5.89758H14.3049C14.2475 5.89878 14.1952 5.86485 14.1729 5.81197L11.777 0.593011Z" fill="white"/>
<path d="M17.3212 0.593011C17.2974 0.548778 17.2997 0.495059 17.3272 0.453035C17.3548 0.411012 17.4031 0.387429 17.4532 0.391584H18.2448C18.3017 0.391074 18.3533 0.424842 18.3757 0.47719L19.8753 3.81181H19.9146L21.4112 0.47719C21.4339 0.424683 21.4859 0.390938 21.5431 0.391584H22.3337C22.3838 0.387429 22.4321 0.411012 22.4596 0.453035C22.4872 0.495059 22.4895 0.548778 22.4657 0.593011L20.0616 5.81197C20.0396 5.86504 19.9871 5.89906 19.9297 5.89758H19.8521C19.7949 5.8985 19.7427 5.86466 19.7202 5.81197L17.3212 0.593011Z" fill="white"/>
<path d="M25.766 0.538729C25.766 0.498843 25.7822 0.460659 25.8109 0.432934C25.8395 0.405209 25.8782 0.390322 25.9181 0.391688H29.0734C29.1126 0.39142 29.1503 0.406793 29.1781 0.434398C29.2059 0.462002 29.2215 0.499556 29.2215 0.538729V1.17524C29.2215 1.21441 29.2059 1.25196 29.1781 1.27957C29.1503 1.30717 29.1126 1.32255 29.0734 1.32228H26.7742V2.59429H28.6877C28.7678 2.5969 28.8321 2.66123 28.8348 2.74133V3.38489C28.835 3.42397 28.8196 3.46152 28.792 3.48916C28.7644 3.51679 28.7268 3.5322 28.6877 3.53193H26.7742V4.88954H29.0694C29.1086 4.88927 29.1463 4.90465 29.174 4.93225C29.2018 4.95986 29.2175 4.99741 29.2175 5.03658V5.67208C29.2175 5.75385 29.1512 5.82013 29.0694 5.82013H25.9181C25.8363 5.82013 25.7701 5.75385 25.7701 5.67208L25.766 0.538729Z" fill="white"/>
<path fill-rule="evenodd" clip-rule="evenodd" d="M30.7604 0.391773C30.6819 0.395039 30.6202 0.460241 30.6214 0.538815V5.67217C30.6202 5.75092 30.6817 5.81642 30.7604 5.82022H32.5984C33.6075 5.88172 34.5675 5.37826 35.0907 4.51312C35.6139 3.64798 35.6139 2.56401 35.0907 1.69887C34.5675 0.83373 33.6075 0.330273 32.5984 0.391773H30.7604ZM34.2501 3.09391C34.2501 4.15643 33.5129 4.86948 32.5057 4.86948L31.6215 4.87351V1.32639H32.5057C33.5129 1.32639 34.2501 2.03138 34.2501 3.09391Z" fill="white"/>
<path d="M36.6541 0.538646C36.6567 0.458544 36.7211 0.394216 36.8012 0.391605H37.5384C37.6196 0.391605 37.6854 0.457438 37.6854 0.538646V3.77255C37.6854 4.43222 38.1356 4.88946 38.8104 4.88946C39.4852 4.88946 39.9424 4.43222 39.9424 3.78161V0.538646C39.9421 0.499566 39.9576 0.462008 39.9852 0.434374C40.0128 0.40674 40.0504 0.391335 40.0895 0.391605H40.8237C40.9039 0.394186 40.9686 0.458382 40.9717 0.538646V3.82693C40.9717 5.00528 40.0331 5.8976 38.8084 5.8976C37.5837 5.8976 36.6521 5.00528 36.6521 3.82693L36.6541 0.538646Z" fill="white"/>
<path d="M43.5016 1.31829H42.3152C42.2761 1.31856 42.2386 1.30315 42.211 1.27552C42.1833 1.24789 42.1679 1.21033 42.1682 1.17125V0.53474C42.1679 0.49566 42.1833 0.458102 42.211 0.430468C42.2386 0.402833 42.2761 0.387428 42.3152 0.387699H45.7042C45.7432 0.387699 45.7806 0.403191 45.8082 0.430766C45.8358 0.458342 45.8513 0.495742 45.8513 0.53474V1.17125C45.8513 1.21025 45.8358 1.24765 45.8082 1.27522C45.7806 1.3028 45.7432 1.31829 45.7042 1.31829H44.5178V5.66809C44.5147 5.74854 44.4502 5.81304 44.3698 5.81614H43.6487C43.5684 5.81301 43.5042 5.74838 43.5016 5.66809V1.31829Z" fill="white"/>
<path d="M47.1001 0.538646C47.0998 0.499566 47.1152 0.462008 47.1429 0.434374C47.1705 0.40674 47.2081 0.391335 47.2472 0.391605H50.4035C50.4426 0.391335 50.4801 0.40674 50.5078 0.434374C50.5354 0.462008 50.5508 0.499566 50.5505 0.538646V1.17515C50.5508 1.21423 50.5354 1.25179 50.5078 1.27943C50.4801 1.30706 50.4426 1.32247 50.4035 1.3222H48.1082V2.5942H50.0218C50.1019 2.59681 50.1662 2.66114 50.1688 2.74124V3.3848C50.1691 3.42388 50.1537 3.46144 50.1261 3.48907C50.0984 3.51671 50.0609 3.53211 50.0218 3.53184H48.1082V4.88946H50.4035C50.4426 4.88919 50.4801 4.90459 50.5078 4.93223C50.5354 4.95986 50.5508 4.99742 50.5505 5.0365V5.672C50.5508 5.71117 50.5354 5.74883 50.5078 5.77663C50.4802 5.80442 50.4427 5.82005 50.4035 5.82005H47.2472C47.208 5.82005 47.1704 5.80442 47.1428 5.77663C47.1152 5.74883 47.0998 5.71117 47.1001 5.672V0.538646Z" fill="white"/>
<path d="M54.3505 0.311024C55.0493 0.292073 55.7268 0.552715 56.2328 1.03515C56.2652 1.06147 56.2846 1.10057 56.286 1.14231C56.2873 1.18406 56.2705 1.22433 56.2398 1.25269L55.7675 1.74115C55.7436 1.7702 55.7079 1.78702 55.6703 1.78702C55.6327 1.78702 55.597 1.7702 55.5731 1.74115C55.2428 1.45006 54.8189 1.28742 54.3787 1.28291C53.3866 1.28291 52.6494 2.11278 52.6494 3.09575C52.6494 4.07871 53.3937 4.88643 54.3867 4.88643C54.8205 4.8801 55.2384 4.72226 55.5681 4.44027C55.6231 4.38995 55.7074 4.38995 55.7625 4.44027L56.2429 4.93678C56.2693 4.9657 56.2831 5.00398 56.2812 5.04312C56.2793 5.08226 56.2619 5.11903 56.2328 5.14526C55.7286 5.63498 55.0512 5.90542 54.3484 5.89759C53.351 5.89759 52.4294 5.36548 51.9307 4.5017C51.432 3.63792 51.432 2.57371 51.9307 1.70993C52.4294 0.846154 53.351 0.314046 54.3484 0.314046L54.3505 0.311024Z" fill="white"/>
<path d="M57.5924 0.538646C57.5951 0.457019 57.6618 0.392101 57.7435 0.391605H58.4646C58.5037 0.391335 58.5412 0.40674 58.5689 0.434374C58.5965 0.462008 58.6119 0.499566 58.6116 0.538646V2.5942H61.1405V0.538646C61.1403 0.499566 61.1557 0.462008 61.1833 0.434374C61.2109 0.40674 61.2485 0.391335 61.2876 0.391605H62.0006C62.0809 0.394186 62.1456 0.458382 62.1487 0.538646V5.67502C62.1456 5.75547 62.0811 5.81997 62.0006 5.82307H61.2876C61.2484 5.82307 61.2109 5.80744 61.1833 5.77965C61.1556 5.75185 61.1403 5.71419 61.1405 5.67502V3.53386H58.6076V5.67401C58.6079 5.71319 58.5925 5.75085 58.5649 5.77864C58.5373 5.80643 58.4997 5.82206 58.4606 5.82206H57.7435C57.6632 5.81893 57.599 5.7543 57.5964 5.67401L57.5924 0.538646Z" fill="white"/>
<path fill-rule="evenodd" clip-rule="evenodd" d="M67.8672 0.399835L65.4561 5.61879C65.4314 5.66313 65.4334 5.71753 65.4614 5.75989C65.4893 5.80226 65.5386 5.82552 65.589 5.82022H66.2638C66.3645 5.82229 66.4553 5.75988 66.4894 5.66512L66.8691 4.82719H69.1855L69.5652 5.66512C69.5963 5.7622 69.689 5.82599 69.7908 5.82022H70.4646C70.5146 5.82438 70.563 5.80079 70.5905 5.75877C70.618 5.71675 70.6203 5.66303 70.5965 5.61879L68.2086 0.399835C68.1883 0.345341 68.1347 0.310568 68.0767 0.314228H67.9991C67.9417 0.313029 67.8895 0.346958 67.8672 0.399835ZM68.0303 2.26102L68.8058 3.96609H67.2468L68.0072 2.26102H68.0303Z" fill="white"/>
<path fill-rule="evenodd" clip-rule="evenodd" d="M71.8071 0.391773C71.7284 0.395029 71.6665 0.460075 71.6671 0.538815V5.67217C71.6664 5.75109 71.7282 5.81644 71.8071 5.82022H73.6451C74.6542 5.88172 75.6142 5.37826 76.1374 4.51312C76.6606 3.64798 76.6606 2.56401 76.1374 1.69887C75.6142 0.83373 74.6542 0.330273 73.6451 0.391773H71.8071ZM75.2968 3.09391C75.2968 4.15643 74.5586 4.86948 73.5514 4.86948L72.6712 4.87351V1.33042H73.5555C74.5626 1.33042 75.2968 2.03138 75.2968 3.09391Z" fill="white"/>
<path d="M76.9717 0.593011C76.9478 0.548778 76.9502 0.495059 76.9777 0.453035C77.0052 0.411012 77.0535 0.387429 77.1036 0.391584H77.8942C77.9515 0.390664 78.0036 0.4245 78.0261 0.47719L79.5227 3.81181H79.562L81.0586 0.47719C81.0811 0.4245 81.1332 0.390664 81.1905 0.391584H81.9811C82.0312 0.387429 82.0795 0.411012 82.107 0.453035C82.1346 0.495059 82.1369 0.548778 82.1131 0.593011L79.709 5.81197C79.6868 5.86485 79.6345 5.89878 79.5771 5.89758H79.4975C79.4402 5.89878 79.3879 5.86485 79.3656 5.81197L76.9717 0.593011Z" fill="white"/>
<path d="M83.1675 0.538643C83.1701 0.458541 83.2345 0.394213 83.3146 0.391602H84.0357C84.116 0.394183 84.1806 0.458378 84.1837 0.538643V5.67502C84.1806 5.75546 84.1161 5.81997 84.0357 5.82307H83.3146C83.2343 5.81994 83.1701 5.7553 83.1675 5.67502L83.1675 0.538643Z" fill="white"/>
<path d="M85.6652 5.29271C85.5877 5.23127 85.5564 5.18394 85.6259 5.06006L85.9049 4.57966C85.9307 4.53508 85.9742 4.50363 86.0246 4.49324C86.0751 4.48285 86.1275 4.49451 86.1688 4.52527C86.487 4.76598 86.8355 5.00568 87.3401 5.00568C87.7429 5.00568 88.0451 4.74281 88.0451 4.40845C88.0451 4.01365 87.7117 3.74172 87.0601 3.47886C86.3319 3.18377 85.6028 2.71848 85.6028 1.80299C85.6028 1.11311 86.1144 0.314453 87.3471 0.314453C87.9051 0.325234 88.4463 0.50659 88.8981 0.834133C88.978 0.894215 88.9982 1.00566 88.9444 1.08995L88.6504 1.53208C88.5879 1.62473 88.4721 1.68717 88.3784 1.62473C88.0451 1.41525 87.7278 1.19872 87.3008 1.19872C86.8587 1.19872 86.619 1.44647 86.619 1.74156C86.619 2.10614 86.905 2.3539 87.5334 2.60971C88.2858 2.91185 89.1539 3.36204 89.1539 4.36212C89.1539 5.16077 88.464 5.89799 87.3703 5.89799C86.3934 5.89799 85.8898 5.48708 85.6652 5.29271Z" fill="white"/>
<path fill-rule="evenodd" clip-rule="evenodd" d="M95.7697 3.09475C95.7653 1.55291 94.5118 0.306604 92.9699 0.311047C92.2291 0.311842 91.519 0.607594 90.9967 1.13296C90.4744 1.65832 90.1827 2.37004 90.1862 3.11087C90.1907 4.65272 91.4442 5.89902 92.986 5.89457C94.5279 5.89011 95.7742 4.6366 95.7697 3.09475ZM94.6243 3.78911C94.3461 4.45634 93.6928 4.88971 92.9699 4.88645V4.88947C91.9909 4.88286 91.1993 4.08994 91.1943 3.11087C91.1911 2.38801 91.6245 1.73465 92.2917 1.45652C92.9589 1.17838 93.728 1.33047 94.2392 1.84162C94.7503 2.35277 94.9024 3.12189 94.6243 3.78911Z" fill="white"/>
<path fill-rule="evenodd" clip-rule="evenodd" d="M97.2966 0.391639C97.2154 0.391639 97.1496 0.457472 97.1496 0.53868L97.1475 5.67203C97.1475 5.75341 97.2132 5.81953 97.2946 5.82008H98.0086C98.0889 5.81695 98.1531 5.75232 98.1557 5.67203V3.69503H99.0168L100.048 5.74958C100.072 5.7951 100.12 5.82257 100.172 5.82008H100.986C101.041 5.82299 101.093 5.79497 101.12 5.74748C101.148 5.69998 101.147 5.64095 101.118 5.59448L100.055 3.62554C100.73 3.35362 101.203 2.7725 101.203 2.05945C101.197 1.13205 100.44 0.385499 99.5123 0.391639H97.2966ZM100.197 2.07456C100.198 2.50252 99.8575 2.85315 99.4297 2.86516H98.1657V1.32223H99.4297C99.8468 1.32428 100.187 1.65754 100.197 2.07456Z" fill="white"/>
<path d="M103.695 3.20678L101.926 0.613412C101.896 0.568441 101.893 0.510189 101.92 0.462743C101.946 0.415296 101.997 0.386716 102.051 0.388821H102.842C102.892 0.390605 102.938 0.416492 102.966 0.458313L104.207 2.24194L105.447 0.458313C105.475 0.416617 105.521 0.39077 105.571 0.388821H106.37C106.424 0.386341 106.475 0.414948 106.502 0.462614C106.528 0.51028 106.525 0.56874 106.494 0.613412L104.703 3.1957V5.66922C104.7 5.7495 104.636 5.81414 104.556 5.81726H103.842C103.803 5.81727 103.765 5.80164 103.738 5.77384C103.71 5.74605 103.695 5.70839 103.695 5.66922V3.20678Z" fill="white"/>
<path fill-rule="evenodd" clip-rule="evenodd" d="M109.538 0.434316C109.511 0.461921 109.495 0.499475 109.495 0.538648V5.672C109.495 5.71127 109.511 5.74892 109.538 5.77669C109.566 5.80445 109.604 5.82005 109.643 5.82005H110.356C110.436 5.81692 110.501 5.75229 110.503 5.672V3.8501H111.473C112.091 3.84866 112.661 3.51774 112.969 2.98199C113.276 2.44624 113.275 1.78705 112.965 1.25274C112.654 0.71843 112.083 0.390167 111.465 0.391606H109.643C109.604 0.391338 109.566 0.406711 109.538 0.434316ZM111.989 2.66446C111.844 2.81635 111.644 2.90293 111.434 2.9044L110.503 2.90541V1.34637H111.434C111.636 1.34091 111.833 1.41789 111.977 1.55969C112.122 1.7015 112.203 1.896 112.202 2.0987C112.211 2.30841 112.134 2.51258 111.989 2.66446Z" fill="white"/>
<path d="M113.799 0.593011C113.776 0.548778 113.778 0.495059 113.805 0.453035C113.833 0.411012 113.881 0.387429 113.931 0.391584H114.722C114.779 0.390938 114.831 0.424683 114.854 0.47719L116.351 3.81181H116.39L117.886 0.47719C117.909 0.424842 117.96 0.391074 118.017 0.391584H118.809C118.859 0.387429 118.907 0.411012 118.935 0.453035C118.962 0.495059 118.965 0.548778 118.941 0.593011L116.537 5.81197C116.515 5.86485 116.462 5.89878 116.405 5.89758H116.327C116.27 5.89878 116.218 5.86485 116.195 5.81197L113.799 0.593011Z" fill="white"/>
<path d="M120.872 1.31829H119.682C119.643 1.31856 119.605 1.30315 119.578 1.27552C119.55 1.24789 119.535 1.21033 119.535 1.17125V0.53474C119.535 0.49566 119.55 0.458102 119.578 0.430468C119.605 0.402833 119.643 0.387428 119.682 0.387699H123.071C123.11 0.387428 123.148 0.402833 123.175 0.430468C123.203 0.458102 123.218 0.49566 123.218 0.53474V1.17125C123.218 1.21033 123.203 1.24789 123.175 1.27552C123.148 1.30315 123.11 1.31856 123.071 1.31829H121.888V5.66809C121.885 5.74854 121.82 5.81304 121.74 5.81614H121.019C120.938 5.81301 120.874 5.74838 120.872 5.66809V1.31829Z" fill="white"/>
<path d="M126.719 0.538646C126.719 0.499566 126.734 0.462008 126.762 0.434374C126.789 0.40674 126.827 0.391335 126.866 0.391605H127.58C127.66 0.394216 127.724 0.458544 127.727 0.538646V4.88946H129.704C129.743 4.88919 129.781 4.90459 129.808 4.93223C129.836 4.95986 129.851 4.99742 129.851 5.0365V5.672C129.851 5.71117 129.836 5.74883 129.808 5.77663C129.781 5.80442 129.743 5.82005 129.704 5.82005H126.866C126.827 5.82005 126.789 5.80442 126.762 5.77663C126.734 5.74883 126.719 5.71117 126.719 5.672V0.538646Z" fill="white"/>
<path d="M131.596 1.31829H130.41C130.371 1.31856 130.333 1.30315 130.306 1.27552C130.278 1.24789 130.263 1.21033 130.263 1.17125V0.53474C130.263 0.49566 130.278 0.458102 130.306 0.430468C130.333 0.402833 130.371 0.387428 130.41 0.387699H133.799C133.88 0.387699 133.946 0.453531 133.946 0.53474V1.17125C133.946 1.25246 133.88 1.31829 133.799 1.31829H132.613V5.66809C132.61 5.74854 132.545 5.81304 132.465 5.81614H131.744C131.663 5.81301 131.599 5.74838 131.596 5.66809V1.31829Z" fill="white"/>
<path fill-rule="evenodd" clip-rule="evenodd" d="M135.332 0.391773C135.253 0.395029 135.191 0.460075 135.192 0.538815V5.67217C135.191 5.75109 135.253 5.81644 135.332 5.82022H137.169C138.178 5.88172 139.138 5.37826 139.661 4.51312C140.184 3.64798 140.184 2.56401 139.661 1.69887C139.138 0.83373 138.178 0.330273 137.169 0.391773H135.332ZM138.821 3.09391C138.821 4.15643 138.083 4.86948 137.076 4.86948L136.199 4.87351V1.32639H137.076C138.084 1.32639 138.821 2.03138 138.821 3.09391Z" fill="white"/>
</svg>
