<svg width="71" height="63" viewBox="0 0 71 63" fill="none" xmlns="http://www.w3.org/2000/svg">
<path d="M2.76802 38.9685C2.12798 38.968 1.56413 38.5475 1.3812 37.9342C1.1274 37.0882 0.911876 36.222 0.740663 35.37C0.352187 33.4472 0.15684 31.4903 0.157534 29.5286C0.157534 13.346 13.3228 0.18079 29.5044 0.18079C34.0982 0.167273 38.6298 1.24347 42.727 3.32103C46.6825 5.32941 50.1366 8.20016 52.8346 11.7215C52.9353 11.8524 53.036 11.9874 53.1367 12.1244C53.5893 12.7695 53.4429 13.6581 52.8073 14.124C52.1717 14.59 51.2803 14.4622 50.8012 13.8365C50.7136 13.7177 50.6259 13.5988 50.5363 13.482C48.1041 10.3062 44.9896 7.71723 41.4228 5.90634C37.7306 4.03427 33.647 3.06472 29.5074 3.0773C14.9231 3.0773 3.05807 14.9423 3.05807 29.5276C3.05709 31.2968 3.23286 33.0617 3.58279 34.7959C3.73789 35.5674 3.93126 36.3429 4.15887 37.1043C4.28946 37.5428 4.20546 38.0172 3.93223 38.3842C3.659 38.7513 3.22859 38.9678 2.77104 38.9685H2.76802Z" fill="white"/>
<path fill-rule="evenodd" clip-rule="evenodd" d="M70.6568 19.5712L68.0302 19.824L66.9959 8.99829L52.6946 27.6705L42.019 20.1895L22.7666 43.5943L14.905 37.9644L8.45933 45.9097C8.76147 46.4485 9.07569 46.9752 9.40805 47.4858C10.3519 48.9398 11.435 50.2984 12.6419 51.5426L12.7729 46.2773H21.4644V57.536C22.3203 57.8909 23.1944 58.2002 24.083 58.4626V43.6154H32.7735V59.5211C33.6588 59.4838 34.532 59.4012 35.3921 59.2784L35.4021 38.9393H44.0836V56.4171C44.9867 55.9307 45.861 55.3927 46.7022 54.8057V33.7385H55.3937V44.6679C58.2062 38.884 58.8191 32.2746 57.1179 26.0722C56.9664 25.3251 57.4195 24.5883 58.1547 24.3865C58.8898 24.1847 59.6556 24.587 59.9067 25.3068C60.6037 27.8458 60.956 30.467 60.9541 33.1C60.9541 49.2816 47.7899 62.4478 31.6083 62.4478C20.5611 62.4437 10.4501 56.2428 5.43793 46.3981L5.01191 45.5592L14.3782 34.0195L22.255 39.6594L41.4913 16.2738L52.0863 23.7014L64.6946 7.23883L53.9787 9.06173L53.5376 6.46031L69.1481 3.81055L70.6568 19.5712Z" fill="white"/>
</svg>
