<svg width="24" height="24" viewBox="0 0 24 24" fill="none" xmlns="http://www.w3.org/2000/svg">
<path fill-rule="evenodd" clip-rule="evenodd" d="M11.9668 23.5527C5.65858 23.5527 0.525146 18.4153 0.525146 12.0999C0.525146 5.78711 5.65858 0.648438 11.9668 0.648438C18.277 0.648438 23.4111 5.78711 23.4111 12.0999C23.4111 18.4153 18.277 23.5527 11.9668 23.5527ZM18.4758 10.7642V8.10658C18.4758 6.7166 17.3481 5.58826 15.9595 5.58826H7.97478C6.58807 5.58826 5.46039 6.7166 5.46039 8.10658V16.0978C5.46039 17.4852 6.58807 18.6135 7.97478 18.6135H15.9595C17.3481 18.6135 18.4758 17.4852 18.4758 16.0978V10.7642ZM15.9595 17.3439H7.97478C7.28535 17.3439 6.72805 16.7866 6.72805 16.0978V10.7642H8.6701C8.5033 11.1763 8.40911 11.6289 8.40911 12.0999C8.40911 14.0635 10.0045 15.6628 11.9668 15.6628C13.9317 15.6628 15.5271 14.0635 15.5271 12.0999C15.5271 11.6289 15.431 11.1763 15.2642 10.7642H17.2062V16.0978C17.2062 16.7866 16.6483 17.3439 15.9595 17.3439ZM14.7625 7.09532L16.6823 7.08813H16.9701V9.29574L14.771 9.30228L14.7625 7.09532ZM11.9668 14.3926C10.7044 14.3926 9.67612 13.3656 9.67612 12.0999C9.67808 11.6015 9.83768 11.141 10.1104 10.7642C10.5265 10.1853 11.2041 9.80922 11.9668 9.80922C12.7321 9.80922 13.4098 10.1873 13.8258 10.7642C14.0959 11.141 14.2581 11.6015 14.2581 12.0999C14.2581 13.3656 13.2292 14.3926 11.9668 14.3926Z" fill="#2F2F2F"/>
</svg>
