<svg width="24" height="24" viewBox="0 0 24 24" fill="none" xmlns="http://www.w3.org/2000/svg">
<path fill-rule="evenodd" clip-rule="evenodd" d="M11.9048 24C5.32993 24 0 18.67 0 12.0952C0 5.52036 5.32993 0.19043 11.9048 0.19043C18.4796 0.19043 23.8095 5.52036 23.8095 12.0952C23.8095 18.67 18.4796 24 11.9048 24ZM6.26599 17.8891H8.89184V10.5272H6.26599V17.8891ZM7.5966 6.97955C6.69796 6.97955 6.11088 7.52852 6.11088 8.25097C6.11088 8.95778 6.68095 9.52308 7.5619 9.52308H7.57891C8.49456 9.52308 9.06463 8.95778 9.06463 8.25097C9.04762 7.52852 8.49456 6.97955 7.5966 6.97955ZM18.3599 13.6687C18.3599 11.4068 17.0639 10.3544 15.3374 10.3544C13.9422 10.3544 13.3197 11.0687 12.9707 11.5707V10.5272H10.3442C10.3789 11.219 10.3442 17.8891 10.3442 17.8891H12.9707V13.7782C12.9707 13.5585 12.9878 13.338 13.0571 13.1816C13.2463 12.7414 13.6789 12.2863 14.4041 12.2863C15.3544 12.2863 15.7347 12.9619 15.7347 13.9517V17.8891H18.3599V13.6687ZM12.9531 11.5952C12.9585 11.587 12.9653 11.5782 12.9707 11.5707V11.5952H12.9531Z" fill="#2F2F2F"/>
</svg>
