<svg width="24" height="24" viewBox="0 0 24 24" fill="none" xmlns="http://www.w3.org/2000/svg">
<path fill-rule="evenodd" clip-rule="evenodd" d="M11.9524 23.8095C5.37754 23.8095 0.0476074 18.4796 0.0476074 11.9048C0.0476074 5.32993 5.37754 0 11.9524 0C18.5272 0 23.8571 5.32993 23.8571 11.9048C23.8571 18.4796 18.5272 23.8095 11.9524 23.8095ZM18.7061 7.00476C18.1388 7.31905 17.5116 7.54762 16.8435 7.67143C16.3095 7.13673 15.5469 6.8034 14.7041 6.8034C13.085 6.8034 11.7714 8.03333 11.7714 9.55102C11.7714 9.76667 11.7973 9.97687 11.8476 10.1769C9.41087 10.0626 7.25033 8.96871 5.80407 7.30612C5.55237 7.71224 5.40747 8.18367 5.40747 8.68776C5.40747 9.64082 5.92516 10.4823 6.71155 10.9748C6.23128 10.9605 5.77958 10.8374 5.38366 10.6313C5.38366 10.6429 5.38366 10.6537 5.38366 10.666C5.38366 11.9973 6.39387 13.1082 7.73536 13.3599C7.48978 13.4231 7.2306 13.4558 6.96325 13.4558C6.77414 13.4558 6.59046 13.4395 6.41155 13.4082C6.78434 14.4986 7.86734 15.2932 9.15033 15.3156C8.14693 16.0524 6.88298 16.4918 5.50883 16.4918C5.2721 16.4918 5.03876 16.4789 4.80951 16.4537C6.10679 17.2327 7.64829 17.6878 9.30407 17.6878C14.6973 17.6878 17.6462 13.5 17.6462 9.87007C17.6462 9.75034 17.6428 9.63197 17.6374 9.51361C18.2102 9.12585 18.7075 8.64286 19.1007 8.09184C18.5748 8.31088 18.0095 8.45782 17.417 8.52449C18.0224 8.18367 18.4871 7.64558 18.7061 7.00476Z" fill="#2F2F2F"/>
</svg>
