<svg width="23" height="24" viewBox="0 0 23 24" fill="none" xmlns="http://www.w3.org/2000/svg">
<path fill-rule="evenodd" clip-rule="evenodd" d="M11.5737 23.0814C5.42545 23.0814 0.442871 18.0988 0.442871 11.9525C0.442871 5.80484 5.42545 0.822266 11.5737 0.822266C17.72 0.822266 22.7026 5.80484 22.7026 11.9525C22.7026 18.0988 17.72 23.0814 11.5737 23.0814ZM9.08909 4.59719L8.51547 6.80199L7.91832 4.59719H7.0331C7.21116 5.11739 7.39558 5.64013 7.57301 6.1616C7.84265 6.94571 8.01054 7.53586 8.08748 7.93841V10.2132H8.92819V7.93841L9.93997 4.59719H9.08909ZM12.1874 7.39214C12.1874 6.94571 12.1104 6.61757 11.9514 6.40644C11.7422 6.12027 11.4465 5.97718 11.0675 5.97718C10.6891 5.97718 10.3934 6.12027 10.1835 6.40644C10.022 6.61884 9.94697 6.94571 9.94697 7.39214V8.85798C9.94697 9.3025 10.022 9.63255 10.1835 9.84241C10.3934 10.1279 10.6891 10.271 11.0675 10.271C11.4465 10.271 11.7422 10.1279 11.9514 9.84241C12.1104 9.63255 12.1874 9.3025 12.1874 8.85798V7.39214ZM14.9912 6.02806H14.2332V9.22682C14.0653 9.46403 13.9063 9.58168 13.7537 9.58168C13.6526 9.58168 13.5928 9.5219 13.5756 9.40361C13.5667 9.37945 13.5667 9.28724 13.5667 9.10918V6.02806H12.8106V9.33684C12.8106 9.63255 12.8367 9.83287 12.8774 9.96006C12.9543 10.1712 13.1222 10.271 13.367 10.271C13.6437 10.271 13.9305 10.1031 14.2332 9.75656V10.2132H14.9912V6.02806ZM17.5674 12.0447C17.4154 11.3839 16.8749 10.8974 16.2243 10.8237C14.6847 10.6526 13.1267 10.6513 11.5743 10.6526C10.0233 10.6513 8.46459 10.6526 6.92435 10.8237C6.27506 10.8974 5.73451 11.3839 5.58379 12.0447C5.36694 12.9852 5.3644 14.0116 5.3644 14.9802C5.3644 15.9474 5.3644 16.9751 5.57998 17.9144C5.7326 18.5751 6.27188 19.0616 6.92244 19.1354C8.46205 19.3071 10.0207 19.3077 11.5724 19.3071C13.1247 19.3077 14.6822 19.3071 16.2224 19.1354C16.873 19.0616 17.4122 18.5751 17.5642 17.9144C17.7811 16.9751 17.7811 15.9474 17.7811 14.9802C17.7811 14.0116 17.783 12.9852 17.5674 12.0447ZM16.665 17.157C16.4571 17.4584 16.1499 17.6066 15.7575 17.6066C15.3652 17.6066 15.0656 17.4654 14.8488 17.1818C14.6898 16.9751 14.609 16.6482 14.609 16.2088V14.7576C14.609 14.315 14.6809 13.9919 14.8399 13.7814C15.0567 13.4978 15.355 13.3566 15.7385 13.3566C16.1156 13.3566 16.4145 13.4978 16.6237 13.7814C16.7814 13.9919 16.8558 14.315 16.8558 14.7576V15.6148H15.355V16.35C15.355 16.7328 15.4815 16.9236 15.7385 16.9236C15.9241 16.9236 16.031 16.8237 16.0742 16.6234C16.0812 16.5827 16.0908 16.4155 16.0908 16.1153H16.8558V16.2241C16.8558 16.467 16.8469 16.6323 16.8405 16.708C16.8151 16.874 16.756 17.0247 16.665 17.157ZM15.3563 14.9903H16.1067V14.6081C16.1067 14.224 15.9807 14.0326 15.7321 14.0326C15.4815 14.0326 15.3563 14.224 15.3563 14.6081V14.9903ZM13.3492 17.6066C13.0821 17.6066 12.8239 17.4578 12.5728 17.1481V17.55H11.8223V11.9912H12.5728V13.8062C12.815 13.508 13.0732 13.3566 13.3492 13.3566C13.6469 13.3566 13.8484 13.5143 13.9483 13.8253C13.9985 13.9919 14.024 14.2654 14.024 14.6577V16.3067C14.024 16.6889 13.9985 16.9649 13.9483 17.1404C13.8484 17.4482 13.6469 17.6066 13.3492 17.6066ZM13.2736 14.598C13.2736 14.224 13.1635 14.0326 12.948 14.0326C12.824 14.0326 12.6987 14.0918 12.5728 14.2151V16.7392C12.6987 16.8651 12.824 16.9236 12.948 16.9236C13.1642 16.9236 13.2736 16.7392 13.2736 16.3659V14.598ZM10.4226 17.0972C10.1244 17.4393 9.8414 17.6066 9.5654 17.6066C9.32375 17.6066 9.15713 17.5074 9.08145 17.2982C9.04012 17.1729 9.01468 16.9751 9.01468 16.6826V13.4081H9.76509V16.4568C9.76509 16.6323 9.76509 16.7239 9.77208 16.7481C9.79116 16.8651 9.84776 16.9236 9.9476 16.9236C10.099 16.9236 10.256 16.8078 10.4226 16.5725V13.4081H11.1743V17.55H10.4226V17.0972ZM8.00736 17.55H7.17237V12.7728H6.28969V11.9912H8.90594V12.7728H8.00736V17.55ZM11.0675 9.58168C10.8227 9.58168 10.705 9.38835 10.705 8.99979V7.24015C10.705 6.8535 10.8227 6.65954 11.0675 6.65954C11.3111 6.65954 11.4287 6.8535 11.4287 7.24015V8.99979C11.4287 9.38835 11.3111 9.58168 11.0675 9.58168Z" fill="#2F2F2F"/>
</svg>
