<svg width="26" height="21" viewBox="0 0 26 21" fill="none" xmlns="http://www.w3.org/2000/svg">
<path d="M17.5338 18.3072L14.911 15.6828C13.8967 16.0454 12.8004 16.1126 11.7494 15.8765C10.6985 15.6403 9.73623 15.1106 8.97458 14.349C8.21293 13.5873 7.68323 12.6251 7.4471 11.5741C7.21097 10.5232 7.27812 9.42683 7.64075 8.41257L4.29325 5.06507C1.52425 7.52695 0 10.3252 0 10.3252C0 10.3252 4.875 19.2627 13 19.2627C14.5607 19.2573 16.1036 18.9321 17.5338 18.3072ZM8.46625 2.3432C9.89634 1.71826 11.4393 1.39307 13 1.3877C21.125 1.3877 26 10.3252 26 10.3252C26 10.3252 24.4741 13.1218 21.7084 15.5869L18.3576 12.2362C18.7203 11.2219 18.7874 10.1256 18.5513 9.07463C18.3151 8.0237 17.7854 7.06142 17.0238 6.29978C16.2621 5.53813 15.2999 5.00842 14.2489 4.77229C13.198 4.53616 12.1016 4.60332 11.0874 4.96595L8.46625 2.34482V2.3432Z" fill="#B1BDC2"/>
<path d="M8.97916 9.75C8.88977 10.3745 8.94705 11.0112 9.14647 11.6098C9.34589 12.2083 9.68196 12.7521 10.128 13.1982C10.5741 13.6443 11.118 13.9804 11.7165 14.1798C12.315 14.3792 12.9518 14.4365 13.5763 14.3471L8.97753 9.75H8.97916ZM17.0229 10.9005L12.4258 6.30175C13.0503 6.21236 13.687 6.26965 14.2855 6.46906C14.8841 6.66848 15.4279 7.00455 15.874 7.45064C16.3201 7.89673 16.6562 8.44059 16.8556 9.03911C17.055 9.63763 17.1123 10.2744 17.0229 10.8989V10.9005ZM22.1758 20.6505L2.67578 1.1505L3.82628 0L23.3263 19.5L22.1758 20.6505Z" fill="#B1BDC2"/>
</svg>
