<svg width="65" height="86" viewBox="0 0 65 86" fill="none" xmlns="http://www.w3.org/2000/svg">
<g filter="url(#filter0_d)">
<path d="M39.5533 36.5536L32.2887 47.2815L21.5463 57.9701C17.5511 52.8925 13.1884 47.9738 10.5286 42.0245L16.3189 33.1543L25.1997 24.5864C22.2316 28.2547 22.4532 33.6499 25.8647 37.0615C29.5146 40.7113 35.4307 40.7113 39.0804 37.0615C39.2448 36.897 39.4037 36.7271 39.5533 36.5536Z" fill="#ECB72B"/>
<path d="M39.7214 36.3518C42.7156 32.6817 42.5031 27.2679 39.0805 23.8472C35.4306 20.1974 29.5146 20.1974 25.8648 23.8472C25.7116 24.0005 25.5656 24.1576 25.4253 24.3182L31.5518 14.3587L39.8636 7.13867C46.0716 9.10387 51.2063 13.4796 54.171 19.1668L48.1072 28.9444L39.7214 36.3518Z" fill="#5085F7"/>
<path d="M25.1995 24.5867L10.5279 42.025C9.07284 38.7734 8.12688 35.2141 8.02926 31.1519C8.02188 30.921 8.01819 30.6883 8.01819 30.4556C8.01819 24.4785 10.1626 19.0001 13.7256 14.752L25.1995 24.5867Z" fill="#DA2F2A"/>
<path d="M25.1995 24.5868L13.7252 14.7514C18.2118 9.40225 24.9444 6 32.4729 6C35.0494 6 37.5327 6.39867 39.8646 7.1375L25.1995 24.5868Z" fill="#4274EB"/>
<path d="M56.9271 30.4542C56.9271 26.3829 55.9321 22.5438 54.1721 19.167L21.5455 57.9713C25.2524 62.6865 28.6395 67.5396 30.0471 73.4826C30.0922 73.6729 30.1408 73.8954 30.1924 74.1454C30.7028 76.6181 34.2434 76.6181 34.7538 74.1454C34.8055 73.8954 34.854 73.6729 34.8991 73.4826C38.6518 57.638 56.4743 49.5407 56.9167 31.152C56.923 30.9202 56.9271 30.6876 56.9271 30.4542Z" fill="#60A850"/>
</g>
<defs>
<filter id="filter0_d" x="0.0181885" y="0" width="64.9089" height="86" filterUnits="userSpaceOnUse" color-interpolation-filters="sRGB">
<feFlood flood-opacity="0" result="BackgroundImageFix"/>
<feColorMatrix in="SourceAlpha" type="matrix" values="0 0 0 0 0 0 0 0 0 0 0 0 0 0 0 0 0 0 127 0"/>
<feOffset dy="2"/>
<feGaussianBlur stdDeviation="4"/>
<feColorMatrix type="matrix" values="0 0 0 0 0 0 0 0 0 0 0 0 0 0 0 0 0 0 0.5 0"/>
<feBlend mode="normal" in2="BackgroundImageFix" result="effect1_dropShadow"/>
<feBlend mode="normal" in="SourceGraphic" in2="effect1_dropShadow" result="shape"/>
</filter>
</defs>
</svg>
