<svg width="76" height="76" viewBox="0 0 76 76" fill="none" xmlns="http://www.w3.org/2000/svg">
<rect width="76" height="76" rx="38" fill="#EE5134"/>
<path fill-rule="evenodd" clip-rule="evenodd" d="M25.6528 46.4926C25.6528 48.6213 27.3784 50.3468 29.507 50.3468H47.4931C49.6218 50.3468 51.3473 48.6213 51.3473 46.4926V28.5065C51.3473 26.3779 49.6218 24.6523 47.4931 24.6523H29.507C27.3784 24.6523 25.6528 26.3779 25.6528 28.5065V46.4926ZM48.7778 46.4926C48.7778 47.2022 48.2027 47.7773 47.4931 47.7773H29.507C28.7975 47.7773 28.2223 47.2022 28.2223 46.4926V28.5065C28.2223 27.797 28.7975 27.2218 29.507 27.2218H35.9306V37.5138L39.0075 37.514L41.0696 34.7556L43.1316 37.514H46.2085L46.2084 27.2218H47.4931C48.2027 27.2218 48.7778 27.797 48.7778 28.5065V46.4926ZM38.5001 27.2218H43.6389V34.0767L41.0696 30.6397L38.5001 34.0769V27.2218Z" fill="#2D2D2D"/>
<mask id="mask0" mask-type="alpha" maskUnits="userSpaceOnUse" x="25" y="24" width="27" height="27">
<path fill-rule="evenodd" clip-rule="evenodd" d="M25.6528 46.4926C25.6528 48.6213 27.3784 50.3468 29.507 50.3468H47.4931C49.6218 50.3468 51.3473 48.6213 51.3473 46.4926V28.5065C51.3473 26.3779 49.6218 24.6523 47.4931 24.6523H29.507C27.3784 24.6523 25.6528 26.3779 25.6528 28.5065V46.4926ZM48.7778 46.4926C48.7778 47.2022 48.2027 47.7773 47.4931 47.7773H29.507C28.7975 47.7773 28.2223 47.2022 28.2223 46.4926V28.5065C28.2223 27.797 28.7975 27.2218 29.507 27.2218H35.9306V37.5138L39.0075 37.514L41.0696 34.7556L43.1316 37.514H46.2085L46.2084 27.2218H47.4931C48.2027 27.2218 48.7778 27.797 48.7778 28.5065V46.4926ZM38.5001 27.2218H43.6389V34.0767L41.0696 30.6397L38.5001 34.0769V27.2218Z" fill="white"/>
</mask>
<g mask="url(#mask0)">
</g>
</svg>
