<svg width="26" height="26" viewBox="0 0 26 26" fill="none" xmlns="http://www.w3.org/2000/svg">
<path d="M13 0C5.8214 0 0 5.8214 0 13C0 20.1786 5.8214 26 13 26C20.1786 26 26 20.1786 26 13C26 5.8214 20.1786 0 13 0ZM13.2755 20.569C13.2753 20.569 13.2757 20.569 13.2755 20.569H13.2724C11.9701 20.5684 10.6904 20.2419 9.55402 19.6222L5.42943 20.7039L6.53333 16.6731C5.85234 15.4936 5.49409 14.1555 5.49469 12.7846C5.49648 8.49594 8.98689 5.00691 13.2755 5.00691C15.3568 5.00771 17.3105 5.81783 18.7793 7.2879C20.2484 8.75818 21.057 10.7125 21.0562 12.7907C21.0544 17.0796 17.5636 20.569 13.2755 20.569Z" fill="#B1BDC2"/>
<path d="M13.2784 6.3208C9.71126 6.3208 6.81018 9.22069 6.80859 12.7853C6.8082 14.0068 7.15018 15.1964 7.79744 16.2257L7.95117 16.4703L7.29776 18.856L9.74538 18.2141L9.98163 18.3542C10.9744 18.9433 12.1127 19.2549 13.2731 19.2553H13.2757C16.8401 19.2553 19.7412 16.3553 19.7427 12.7905C19.7433 11.0629 19.0713 9.43869 17.8503 8.21677C16.6294 6.99484 15.0056 6.3214 13.2784 6.3208ZM17.0823 15.5648C16.9202 16.0186 16.1436 16.433 15.7701 16.489C15.4351 16.5389 15.0114 16.5598 14.5456 16.412C14.2631 16.3223 13.9011 16.2027 13.4371 16.0026C11.487 15.1607 10.2133 13.1977 10.1161 13.068C10.0189 12.9382 9.32227 12.0141 9.32227 11.0573C9.32227 10.1008 9.82453 9.63051 10.0027 9.43611C10.181 9.24152 10.3916 9.19292 10.5212 9.19292C10.6507 9.19292 10.7804 9.19411 10.8937 9.19966C11.0131 9.20561 11.1734 9.15424 11.3311 9.53331C11.4932 9.9225 11.882 10.879 11.9306 10.9762C11.9792 11.0736 12.0115 11.1871 11.9468 11.3168C11.882 11.4465 11.6665 11.7264 11.4608 11.9815C11.3745 12.0884 11.2621 12.1837 11.3755 12.3783C11.4888 12.5726 11.8792 13.2092 12.457 13.7245C13.1997 14.3867 13.8261 14.5918 14.0205 14.6892C14.2147 14.7864 14.3282 14.7701 14.4417 14.6406C14.5549 14.5109 14.9276 14.0731 15.0572 13.8785C15.1867 13.6839 15.3164 13.7164 15.4946 13.7813C15.6729 13.8459 16.6286 14.3163 16.823 14.4135C17.0174 14.5109 17.1469 14.5595 17.1955 14.6406C17.2443 14.7217 17.2443 15.1107 17.0823 15.5648Z" fill="#B1BDC2"/>
</svg>
