<svg width="188" height="130" viewBox="0 0 188 130" fill="none" xmlns="http://www.w3.org/2000/svg">
<g opacity="0.9">
<g opacity="0.9">
<path opacity="0.9" d="M73.5 12C74.8807 12 76 10.8807 76 9.5C76 8.11929 74.8807 7 73.5 7C72.1193 7 71 8.11929 71 9.5C71 10.8807 72.1193 12 73.5 12Z" fill="#D8D8D8"/>
<path opacity="0.9" d="M73.5 46C74.8807 46 76 44.8807 76 43.5C76 42.1193 74.8807 41 73.5 41C72.1193 41 71 42.1193 71 43.5C71 44.8807 72.1193 46 73.5 46Z" fill="#D8D8D8"/>
<path opacity="0.9" d="M73.5 29C74.8807 29 76 27.8807 76 26.5C76 25.1193 74.8807 24 73.5 24C72.1193 24 71 25.1193 71 26.5C71 27.8807 72.1193 29 73.5 29Z" fill="#D8D8D8"/>
<path opacity="0.9" d="M73.5 63C74.8807 63 76 61.8807 76 60.5C76 59.1193 74.8807 58 73.5 58C72.1193 58 71 59.1193 71 60.5C71 61.8807 72.1193 63 73.5 63Z" fill="#D8D8D8"/>
<path opacity="0.9" d="M2.5 12C3.88071 12 5 10.8807 5 9.5C5 8.11929 3.88071 7 2.5 7C1.11929 7 0 8.11929 0 9.5C0 10.8807 1.11929 12 2.5 12Z" fill="#D8D8D8"/>
<path opacity="0.9" d="M2.5 46C3.88071 46 5 44.8807 5 43.5C5 42.1193 3.88071 41 2.5 41C1.11929 41 0 42.1193 0 43.5C0 44.8807 1.11929 46 2.5 46Z" fill="#D8D8D8"/>
<path opacity="0.9" d="M2.5 29C3.88071 29 5 27.8807 5 26.5C5 25.1193 3.88071 24 2.5 24C1.11929 24 0 25.1193 0 26.5C0 27.8807 1.11929 29 2.5 29Z" fill="#D8D8D8"/>
<path opacity="0.9" d="M2.5 63C3.88071 63 5 61.8807 5 60.5C5 59.1193 3.88071 58 2.5 58C1.11929 58 0 59.1193 0 60.5C0 61.8807 1.11929 63 2.5 63Z" fill="#D8D8D8"/>
<path opacity="0.9" d="M144.5 12C145.881 12 147 10.8807 147 9.5C147 8.11929 145.881 7 144.5 7C143.119 7 142 8.11929 142 9.5C142 10.8807 143.119 12 144.5 12Z" fill="#D8D8D8"/>
<path opacity="0.9" d="M144.5 46C145.881 46 147 44.8807 147 43.5C147 42.1193 145.881 41 144.5 41C143.119 41 142 42.1193 142 43.5C142 44.8807 143.119 46 144.5 46Z" fill="#D8D8D8"/>
<path opacity="0.9" d="M144.5 29C145.881 29 147 27.8807 147 26.5C147 25.1193 145.881 24 144.5 24C143.119 24 142 25.1193 142 26.5C142 27.8807 143.119 29 144.5 29Z" fill="#D8D8D8"/>
<path opacity="0.9" d="M144.5 63C145.881 63 147 61.8807 147 60.5C147 59.1193 145.881 58 144.5 58C143.119 58 142 59.1193 142 60.5C142 61.8807 143.119 63 144.5 63Z" fill="#D8D8D8"/>
<path opacity="0.9" d="M108.5 12C109.881 12 111 10.8807 111 9.5C111 8.11929 109.881 7 108.5 7C107.119 7 106 8.11929 106 9.5C106 10.8807 107.119 12 108.5 12Z" fill="#D8D8D8"/>
<path opacity="0.9" d="M108.5 46C109.881 46 111 44.8807 111 43.5C111 42.1193 109.881 41 108.5 41C107.119 41 106 42.1193 106 43.5C106 44.8807 107.119 46 108.5 46Z" fill="#D8D8D8"/>
<path opacity="0.9" d="M108.5 29C109.881 29 111 27.8807 111 26.5C111 25.1193 109.881 24 108.5 24C107.119 24 106 25.1193 106 26.5C106 27.8807 107.119 29 108.5 29Z" fill="#D8D8D8"/>
<path opacity="0.9" d="M108.5 63C109.881 63 111 61.8807 111 60.5C111 59.1193 109.881 58 108.5 58C107.119 58 106 59.1193 106 60.5C106 61.8807 107.119 63 108.5 63Z" fill="#D8D8D8"/>
<path opacity="0.9" d="M37.5 12C38.8807 12 40 10.8807 40 9.5C40 8.11929 38.8807 7 37.5 7C36.1193 7 35 8.11929 35 9.5C35 10.8807 36.1193 12 37.5 12Z" fill="#D8D8D8"/>
<path opacity="0.9" d="M37.5 46C38.8807 46 40 44.8807 40 43.5C40 42.1193 38.8807 41 37.5 41C36.1193 41 35 42.1193 35 43.5C35 44.8807 36.1193 46 37.5 46Z" fill="#D8D8D8"/>
<path opacity="0.9" d="M37.5 29C38.8807 29 40 27.8807 40 26.5C40 25.1193 38.8807 24 37.5 24C36.1193 24 35 25.1193 35 26.5C35 27.8807 36.1193 29 37.5 29Z" fill="#D8D8D8"/>
<path opacity="0.9" d="M37.5 63C38.8807 63 40 61.8807 40 60.5C40 59.1193 38.8807 58 37.5 58C36.1193 58 35 59.1193 35 60.5C35 61.8807 36.1193 63 37.5 63Z" fill="#D8D8D8"/>
<path opacity="0.9" d="M179.5 12C180.881 12 182 10.8807 182 9.5C182 8.11929 180.881 7 179.5 7C178.119 7 177 8.11929 177 9.5C177 10.8807 178.119 12 179.5 12Z" fill="#D8D8D8"/>
<path opacity="0.9" d="M179.5 46C180.881 46 182 44.8807 182 43.5C182 42.1193 180.881 41 179.5 41C178.119 41 177 42.1193 177 43.5C177 44.8807 178.119 46 179.5 46Z" fill="#D8D8D8"/>
<path opacity="0.9" d="M179.5 29C180.881 29 182 27.8807 182 26.5C182 25.1193 180.881 24 179.5 24C178.119 24 177 25.1193 177 26.5C177 27.8807 178.119 29 179.5 29Z" fill="#D8D8D8"/>
<path opacity="0.9" d="M179.5 63C180.881 63 182 61.8807 182 60.5C182 59.1193 180.881 58 179.5 58C178.119 58 177 59.1193 177 60.5C177 61.8807 178.119 63 179.5 63Z" fill="#D8D8D8"/>
<path opacity="0.9" d="M91.5 12C92.8807 12 94 10.8807 94 9.5C94 8.11929 92.8807 7 91.5 7C90.1193 7 89 8.11929 89 9.5C89 10.8807 90.1193 12 91.5 12Z" fill="#D8D8D8"/>
<path opacity="0.9" d="M91.5 46C92.8807 46 94 44.8807 94 43.5C94 42.1193 92.8807 41 91.5 41C90.1193 41 89 42.1193 89 43.5C89 44.8807 90.1193 46 91.5 46Z" fill="#D8D8D8"/>
<path opacity="0.9" d="M91.5 29C92.8807 29 94 27.8807 94 26.5C94 25.1193 92.8807 24 91.5 24C90.1193 24 89 25.1193 89 26.5C89 27.8807 90.1193 29 91.5 29Z" fill="#D8D8D8"/>
<path opacity="0.9" d="M91.5 63C92.8807 63 94 61.8807 94 60.5C94 59.1193 92.8807 58 91.5 58C90.1193 58 89 59.1193 89 60.5C89 61.8807 90.1193 63 91.5 63Z" fill="#D8D8D8"/>
<path opacity="0.9" d="M20.5 12C21.8807 12 23 10.8807 23 9.5C23 8.11929 21.8807 7 20.5 7C19.1193 7 18 8.11929 18 9.5C18 10.8807 19.1193 12 20.5 12Z" fill="#D8D8D8"/>
<path opacity="0.9" d="M20.5 46C21.8807 46 23 44.8807 23 43.5C23 42.1193 21.8807 41 20.5 41C19.1193 41 18 42.1193 18 43.5C18 44.8807 19.1193 46 20.5 46Z" fill="#D8D8D8"/>
<path opacity="0.9" d="M20.5 29C21.8807 29 23 27.8807 23 26.5C23 25.1193 21.8807 24 20.5 24C19.1193 24 18 25.1193 18 26.5C18 27.8807 19.1193 29 20.5 29Z" fill="#D8D8D8"/>
<path opacity="0.9" d="M20.5 63C21.8807 63 23 61.8807 23 60.5C23 59.1193 21.8807 58 20.5 58C19.1193 58 18 59.1193 18 60.5C18 61.8807 19.1193 63 20.5 63Z" fill="#D8D8D8"/>
<path opacity="0.9" d="M162.5 12C163.881 12 165 10.8807 165 9.5C165 8.11929 163.881 7 162.5 7C161.119 7 160 8.11929 160 9.5C160 10.8807 161.119 12 162.5 12Z" fill="#D8D8D8"/>
<path opacity="0.9" d="M162.5 46C163.881 46 165 44.8807 165 43.5C165 42.1193 163.881 41 162.5 41C161.119 41 160 42.1193 160 43.5C160 44.8807 161.119 46 162.5 46Z" fill="#D8D8D8"/>
<path opacity="0.9" d="M162.5 29C163.881 29 165 27.8807 165 26.5C165 25.1193 163.881 24 162.5 24C161.119 24 160 25.1193 160 26.5C160 27.8807 161.119 29 162.5 29Z" fill="#D8D8D8"/>
<path opacity="0.9" d="M162.5 63C163.881 63 165 61.8807 165 60.5C165 59.1193 163.881 58 162.5 58C161.119 58 160 59.1193 160 60.5C160 61.8807 161.119 63 162.5 63Z" fill="#D8D8D8"/>
<path opacity="0.9" d="M126.5 12C127.881 12 129 10.8807 129 9.5C129 8.11929 127.881 7 126.5 7C125.119 7 124 8.11929 124 9.5C124 10.8807 125.119 12 126.5 12Z" fill="#D8D8D8"/>
<path opacity="0.9" d="M126.5 46C127.881 46 129 44.8807 129 43.5C129 42.1193 127.881 41 126.5 41C125.119 41 124 42.1193 124 43.5C124 44.8807 125.119 46 126.5 46Z" fill="#D8D8D8"/>
<path opacity="0.9" d="M126.5 29C127.881 29 129 27.8807 129 26.5C129 25.1193 127.881 24 126.5 24C125.119 24 124 25.1193 124 26.5C124 27.8807 125.119 29 126.5 29Z" fill="#D8D8D8"/>
<path opacity="0.9" d="M126.5 63C127.881 63 129 61.8807 129 60.5C129 59.1193 127.881 58 126.5 58C125.119 58 124 59.1193 124 60.5C124 61.8807 125.119 63 126.5 63Z" fill="#D8D8D8"/>
<path opacity="0.9" d="M55.5 12C56.8807 12 58 10.8807 58 9.5C58 8.11929 56.8807 7 55.5 7C54.1193 7 53 8.11929 53 9.5C53 10.8807 54.1193 12 55.5 12Z" fill="#D8D8D8"/>
<path opacity="0.9" d="M55.5 46C56.8807 46 58 44.8807 58 43.5C58 42.1193 56.8807 41 55.5 41C54.1193 41 53 42.1193 53 43.5C53 44.8807 54.1193 46 55.5 46Z" fill="#D8D8D8"/>
<path opacity="0.9" d="M55.5 29C56.8807 29 58 27.8807 58 26.5C58 25.1193 56.8807 24 55.5 24C54.1193 24 53 25.1193 53 26.5C53 27.8807 54.1193 29 55.5 29Z" fill="#D8D8D8"/>
<path opacity="0.9" d="M55.5 63C56.8807 63 58 61.8807 58 60.5C58 59.1193 56.8807 58 55.5 58C54.1193 58 53 59.1193 53 60.5C53 61.8807 54.1193 63 55.5 63Z" fill="#D8D8D8"/>
<path opacity="0.9" d="M73.5 79C74.8807 79 76 77.8807 76 76.5C76 75.1193 74.8807 74 73.5 74C72.1193 74 71 75.1193 71 76.5C71 77.8807 72.1193 79 73.5 79Z" fill="#D8D8D8"/>
<path opacity="0.9" d="M73.5 113C74.8807 113 76 111.881 76 110.5C76 109.119 74.8807 108 73.5 108C72.1193 108 71 109.119 71 110.5C71 111.881 72.1193 113 73.5 113Z" fill="#D8D8D8"/>
<path opacity="0.9" d="M73.5 96C74.8807 96 76 94.8807 76 93.5C76 92.1193 74.8807 91 73.5 91C72.1193 91 71 92.1193 71 93.5C71 94.8807 72.1193 96 73.5 96Z" fill="#D8D8D8"/>
<path opacity="0.9" d="M73.5 130C74.8807 130 76 128.881 76 127.5C76 126.119 74.8807 125 73.5 125C72.1193 125 71 126.119 71 127.5C71 128.881 72.1193 130 73.5 130Z" fill="#D8D8D8"/>
<path opacity="0.9" d="M2.5 79C3.88071 79 5 77.8807 5 76.5C5 75.1193 3.88071 74 2.5 74C1.11929 74 0 75.1193 0 76.5C0 77.8807 1.11929 79 2.5 79Z" fill="#D8D8D8"/>
<path opacity="0.9" d="M2.5 113C3.88071 113 5 111.881 5 110.5C5 109.119 3.88071 108 2.5 108C1.11929 108 0 109.119 0 110.5C0 111.881 1.11929 113 2.5 113Z" fill="#D8D8D8"/>
<path opacity="0.9" d="M2.5 96C3.88071 96 5 94.8807 5 93.5C5 92.1193 3.88071 91 2.5 91C1.11929 91 0 92.1193 0 93.5C0 94.8807 1.11929 96 2.5 96Z" fill="#D8D8D8"/>
<path opacity="0.9" d="M2.5 130C3.88071 130 5 128.881 5 127.5C5 126.119 3.88071 125 2.5 125C1.11929 125 0 126.119 0 127.5C0 128.881 1.11929 130 2.5 130Z" fill="#D8D8D8"/>
<path opacity="0.9" d="M144.5 79C145.881 79 147 77.8807 147 76.5C147 75.1193 145.881 74 144.5 74C143.119 74 142 75.1193 142 76.5C142 77.8807 143.119 79 144.5 79Z" fill="#D8D8D8"/>
<path opacity="0.9" d="M144.5 113C145.881 113 147 111.881 147 110.5C147 109.119 145.881 108 144.5 108C143.119 108 142 109.119 142 110.5C142 111.881 143.119 113 144.5 113Z" fill="#D8D8D8"/>
<path opacity="0.9" d="M144.5 96C145.881 96 147 94.8807 147 93.5C147 92.1193 145.881 91 144.5 91C143.119 91 142 92.1193 142 93.5C142 94.8807 143.119 96 144.5 96Z" fill="#D8D8D8"/>
<path opacity="0.9" d="M144.5 130C145.881 130 147 128.881 147 127.5C147 126.119 145.881 125 144.5 125C143.119 125 142 126.119 142 127.5C142 128.881 143.119 130 144.5 130Z" fill="#D8D8D8"/>
<path opacity="0.9" d="M108.5 79C109.881 79 111 77.8807 111 76.5C111 75.1193 109.881 74 108.5 74C107.119 74 106 75.1193 106 76.5C106 77.8807 107.119 79 108.5 79Z" fill="#D8D8D8"/>
<path opacity="0.9" d="M108.5 113C109.881 113 111 111.881 111 110.5C111 109.119 109.881 108 108.5 108C107.119 108 106 109.119 106 110.5C106 111.881 107.119 113 108.5 113Z" fill="#D8D8D8"/>
<path opacity="0.9" d="M108.5 96C109.881 96 111 94.8807 111 93.5C111 92.1193 109.881 91 108.5 91C107.119 91 106 92.1193 106 93.5C106 94.8807 107.119 96 108.5 96Z" fill="#D8D8D8"/>
<path opacity="0.9" d="M108.5 130C109.881 130 111 128.881 111 127.5C111 126.119 109.881 125 108.5 125C107.119 125 106 126.119 106 127.5C106 128.881 107.119 130 108.5 130Z" fill="#D8D8D8"/>
<path opacity="0.9" d="M37.5 79C38.8807 79 40 77.8807 40 76.5C40 75.1193 38.8807 74 37.5 74C36.1193 74 35 75.1193 35 76.5C35 77.8807 36.1193 79 37.5 79Z" fill="#D8D8D8"/>
<path opacity="0.9" d="M37.5 113C38.8807 113 40 111.881 40 110.5C40 109.119 38.8807 108 37.5 108C36.1193 108 35 109.119 35 110.5C35 111.881 36.1193 113 37.5 113Z" fill="#D8D8D8"/>
<path opacity="0.9" d="M37.5 96C38.8807 96 40 94.8807 40 93.5C40 92.1193 38.8807 91 37.5 91C36.1193 91 35 92.1193 35 93.5C35 94.8807 36.1193 96 37.5 96Z" fill="#D8D8D8"/>
<path opacity="0.9" d="M37.5 130C38.8807 130 40 128.881 40 127.5C40 126.119 38.8807 125 37.5 125C36.1193 125 35 126.119 35 127.5C35 128.881 36.1193 130 37.5 130Z" fill="#D8D8D8"/>
<path opacity="0.9" d="M179.5 79C180.881 79 182 77.8807 182 76.5C182 75.1193 180.881 74 179.5 74C178.119 74 177 75.1193 177 76.5C177 77.8807 178.119 79 179.5 79Z" fill="#D8D8D8"/>
<path opacity="0.9" d="M179.5 113C180.881 113 182 111.881 182 110.5C182 109.119 180.881 108 179.5 108C178.119 108 177 109.119 177 110.5C177 111.881 178.119 113 179.5 113Z" fill="#D8D8D8"/>
<path opacity="0.9" d="M179.5 96C180.881 96 182 94.8807 182 93.5C182 92.1193 180.881 91 179.5 91C178.119 91 177 92.1193 177 93.5C177 94.8807 178.119 96 179.5 96Z" fill="#D8D8D8"/>
<path opacity="0.9" d="M179.5 130C180.881 130 182 128.881 182 127.5C182 126.119 180.881 125 179.5 125C178.119 125 177 126.119 177 127.5C177 128.881 178.119 130 179.5 130Z" fill="#D8D8D8"/>
<path opacity="0.9" d="M91.5 79C92.8807 79 94 77.8807 94 76.5C94 75.1193 92.8807 74 91.5 74C90.1193 74 89 75.1193 89 76.5C89 77.8807 90.1193 79 91.5 79Z" fill="#D8D8D8"/>
<path opacity="0.9" d="M91.5 113C92.8807 113 94 111.881 94 110.5C94 109.119 92.8807 108 91.5 108C90.1193 108 89 109.119 89 110.5C89 111.881 90.1193 113 91.5 113Z" fill="#D8D8D8"/>
<path opacity="0.9" d="M91.5 96C92.8807 96 94 94.8807 94 93.5C94 92.1193 92.8807 91 91.5 91C90.1193 91 89 92.1193 89 93.5C89 94.8807 90.1193 96 91.5 96Z" fill="#D8D8D8"/>
<path opacity="0.9" d="M91.5 130C92.8807 130 94 128.881 94 127.5C94 126.119 92.8807 125 91.5 125C90.1193 125 89 126.119 89 127.5C89 128.881 90.1193 130 91.5 130Z" fill="#D8D8D8"/>
<path opacity="0.9" d="M20.5 79C21.8807 79 23 77.8807 23 76.5C23 75.1193 21.8807 74 20.5 74C19.1193 74 18 75.1193 18 76.5C18 77.8807 19.1193 79 20.5 79Z" fill="#D8D8D8"/>
<path opacity="0.9" d="M20.5 113C21.8807 113 23 111.881 23 110.5C23 109.119 21.8807 108 20.5 108C19.1193 108 18 109.119 18 110.5C18 111.881 19.1193 113 20.5 113Z" fill="#D8D8D8"/>
<path opacity="0.9" d="M20.5 96C21.8807 96 23 94.8807 23 93.5C23 92.1193 21.8807 91 20.5 91C19.1193 91 18 92.1193 18 93.5C18 94.8807 19.1193 96 20.5 96Z" fill="#D8D8D8"/>
<path opacity="0.9" d="M20.5 130C21.8807 130 23 128.881 23 127.5C23 126.119 21.8807 125 20.5 125C19.1193 125 18 126.119 18 127.5C18 128.881 19.1193 130 20.5 130Z" fill="#D8D8D8"/>
<path opacity="0.9" d="M162.5 79C163.881 79 165 77.8807 165 76.5C165 75.1193 163.881 74 162.5 74C161.119 74 160 75.1193 160 76.5C160 77.8807 161.119 79 162.5 79Z" fill="#D8D8D8"/>
<path opacity="0.9" d="M162.5 113C163.881 113 165 111.881 165 110.5C165 109.119 163.881 108 162.5 108C161.119 108 160 109.119 160 110.5C160 111.881 161.119 113 162.5 113Z" fill="#D8D8D8"/>
<path opacity="0.9" d="M162.5 96C163.881 96 165 94.8807 165 93.5C165 92.1193 163.881 91 162.5 91C161.119 91 160 92.1193 160 93.5C160 94.8807 161.119 96 162.5 96Z" fill="#D8D8D8"/>
<path opacity="0.9" d="M162.5 130C163.881 130 165 128.881 165 127.5C165 126.119 163.881 125 162.5 125C161.119 125 160 126.119 160 127.5C160 128.881 161.119 130 162.5 130Z" fill="#D8D8D8"/>
<path opacity="0.9" d="M126.5 79C127.881 79 129 77.8807 129 76.5C129 75.1193 127.881 74 126.5 74C125.119 74 124 75.1193 124 76.5C124 77.8807 125.119 79 126.5 79Z" fill="#D8D8D8"/>
<path opacity="0.9" d="M126.5 113C127.881 113 129 111.881 129 110.5C129 109.119 127.881 108 126.5 108C125.119 108 124 109.119 124 110.5C124 111.881 125.119 113 126.5 113Z" fill="#D8D8D8"/>
<path opacity="0.9" d="M126.5 96C127.881 96 129 94.8807 129 93.5C129 92.1193 127.881 91 126.5 91C125.119 91 124 92.1193 124 93.5C124 94.8807 125.119 96 126.5 96Z" fill="#D8D8D8"/>
<path opacity="0.9" d="M126.5 130C127.881 130 129 128.881 129 127.5C129 126.119 127.881 125 126.5 125C125.119 125 124 126.119 124 127.5C124 128.881 125.119 130 126.5 130Z" fill="#D8D8D8"/>
<path opacity="0.9" d="M55.5 79C56.8807 79 58 77.8807 58 76.5C58 75.1193 56.8807 74 55.5 74C54.1193 74 53 75.1193 53 76.5C53 77.8807 54.1193 79 55.5 79Z" fill="#D8D8D8"/>
<path opacity="0.9" d="M55.5 113C56.8807 113 58 111.881 58 110.5C58 109.119 56.8807 108 55.5 108C54.1193 108 53 109.119 53 110.5C53 111.881 54.1193 113 55.5 113Z" fill="#D8D8D8"/>
<path opacity="0.9" d="M55.5 96C56.8807 96 58 94.8807 58 93.5C58 92.1193 56.8807 91 55.5 91C54.1193 91 53 92.1193 53 93.5C53 94.8807 54.1193 96 55.5 96Z" fill="#D8D8D8"/>
<path opacity="0.9" d="M55.5 130C56.8807 130 58 128.881 58 127.5C58 126.119 56.8807 125 55.5 125C54.1193 125 53 126.119 53 127.5C53 128.881 54.1193 130 55.5 130Z" fill="#D8D8D8"/>
</g>
</g>
</svg>
